<?xml version="1.0" standalone="no"?>
<!DOCTYPE svg PUBLIC "-//W3C//DTD SVG 1.1//EN" "http://www.w3.org/Graphics/SVG/1.1/DTD/svg11.dtd" >
<svg xmlns="http://www.w3.org/2000/svg" xmlns:xlink="http://www.w3.org/1999/xlink" version="1.1">
<metadata>
Created by FontForge 20150824 at Wed Jan  6 04:52:59 2016
 By Everything Fonts
Generated in 2008 by FontLab Studio. Copyright info pending.
</metadata>
<defs>
<font id="TTSlugOTF-Bold" horiz-adv-x="375" >
  <font-face 
    font-family="TT Slug OTF"
    font-weight="700"
    font-stretch="normal"
    units-per-em="1000"
    panose-1="2 0 8 6 0 0 0 2 0 4"
    ascent="800"
    descent="-200"
    x-height="547"
    cap-height="729"
    bbox="-149 -236 1063 928"
    underline-thickness="126"
    underline-position="-111"
    unicode-range="U+0020-FB02"
  />
<missing-glyph horiz-adv-x="450" 
d="M37 -177v882h375v-882h-375zM79 -121h291v770h-291v-770z" />
    <glyph glyph-name=".notdef" horiz-adv-x="450" 
d="M37 -177v882h375v-882h-375zM79 -121h291v770h-291v-770z" />
    <glyph glyph-name="space" unicode=" " horiz-adv-x="261" 
 />
    <glyph glyph-name="breve" unicode="&#x2d8;" 
d="M64 784h53c5 -45 29 -70 70 -70c42 0 66 25 71 70h52c-3 -93 -47 -145 -123 -145c-75 0 -120 52 -123 145z" />
    <glyph glyph-name="dotaccent" unicode="&#x2d9;" 
d="M137 774h101v-120h-101v120z" />
    <glyph glyph-name="ring" unicode="&#x2da;" 
d="M139 749c0 -36 22 -64 48 -64c27 0 48 29 48 64s-21 64 -48 64s-48 -29 -48 -64zM83 749c0 39 10 71 30 98s45 41 74 41c30 0 54 -14 74 -41s31 -59 31 -98s-11 -72 -31 -99s-44 -40 -74 -40c-29 0 -54 13 -74 40s-30 60 -30 99z" />
    <glyph glyph-name="hungarumlaut" unicode="&#x2dd;" 
d="M142 800h79l-91 -184h-60zM274 800h85l-100 -184h-63z" />
    <glyph glyph-name="ogonek" unicode="&#x2db;" 
d="M166 0h51c-24 -44 -32 -64 -32 -81c0 -25 16 -43 40 -43c19 0 37 4 57 15v-76c-27 -7 -50 -11 -70 -11c-56 0 -87 31 -87 87c0 35 13 69 41 109z" />
    <glyph glyph-name="caron" unicode="&#x2c7;" 
d="M143 616l-94 184h66l72 -111l73 111h65l-93 -184h-89z" />
    <glyph glyph-name="dotlessi" unicode="&#x131;" horiz-adv-x="257" 
d="M63 547h131v-547h-131v547z" />
    <glyph glyph-name="fraction" unicode="&#x2044;" horiz-adv-x="125" 
d="M-68 -14h-81l342 756h81z" />
    <glyph glyph-name="fi" unicode="&#xfb01;" horiz-adv-x="556" 
d="M361 760h132v-143h-132v143zM334 760v-115h-73c-36 0 -49 -16 -49 -60v-38h281v-547h-132v422h-149v-422h-132v422h-64v125h64v38c0 119 49 175 153 175h101z" />
    <glyph glyph-name="fl" unicode="&#xfb02;" horiz-adv-x="556" 
d="M232 760h261v-760h-132v645h-101c-37 0 -49 -16 -49 -60v-38h102v-125h-102v-422h-132v422h-65v125h65v38c0 119 49 175 153 175z" />
    <glyph glyph-name="Lslash" unicode="&#x141;" horiz-adv-x="481" 
d="M73 729h141v-203l93 90l52 -94l-145 -133v-247h247v-142h-388v256l-54 -52l-53 93l107 96v336z" />
    <glyph glyph-name="lslash" unicode="&#x142;" horiz-adv-x="278" 
d="M73 760h132v-245l47 43l40 -75l-87 -80v-403h-132v313l-46 -42l-41 75l87 80v334z" />
    <glyph glyph-name="Zcaron" unicode="&#x17d;" horiz-adv-x="544" 
d="M42 729h460v-114l-294 -473h302v-142h-476v114l293 473h-285v142zM207 798l-82 129h65l73 -79l73 79h65l-82 -129h-112z" />
    <glyph glyph-name="zcaron" unicode="&#x17e;" horiz-adv-x="436" 
d="M43 547h357v-122l-216 -300h216v-125h-366v122l216 300h-207v125zM174 616l-94 184h66l72 -111l73 111h65l-93 -184h-89z" />
    <glyph glyph-name="exclam" unicode="!" horiz-adv-x="342" 
d="M105 729h132v-280l-19 -204h-94l-19 204v280zM105 174h132v-174h-132v174z" />
    <glyph glyph-name="quotedbl" unicode="&#x22;" horiz-adv-x="391" 
d="M319 729v-271h-87v271h87zM158 729v-271h-87v271h87z" />
    <glyph glyph-name="numbersign" unicode="#" horiz-adv-x="628" 
d="M334 718l-36 -188h97l35 188h81l-35 -188h101v-104h-120l-26 -134h104v-105h-123l-35 -187h-81l35 187h-96l-36 -187h-81l35 187h-102v105h120l25 134h-103v104h124l35 188h82zM375 426h-97l-25 -134h96z" />
    <glyph glyph-name="dollar" unicode="$" horiz-adv-x="522" 
d="M291 -147h-59v147c-61 3 -119 18 -173 45v128c56 -39 113 -59 173 -62v152l-12 3c-117 28 -162 82 -162 191c0 116 63 185 174 190v113h59v-111c49 -5 98 -17 147 -34v-124c-49 28 -97 43 -147 46v-140l12 -3c62 -13 106 -34 130 -65c25 -31 38 -76 38 -135
c0 -120 -59 -184 -180 -193v-148zM232 408v128c-36 -3 -57 -27 -57 -62c0 -39 18 -59 57 -66zM291 249v-136c43 1 64 22 64 65c0 44 -18 64 -64 71z" />
    <glyph glyph-name="percent" unicode="%" horiz-adv-x="751" 
d="M581 301c-35 0 -55 -41 -55 -116s20 -116 55 -116s54 41 54 116s-19 116 -54 116zM581 383c91 0 146 -75 146 -198s-55 -199 -146 -199s-147 76 -147 199s56 198 147 198zM245 -14h-81l342 756h81zM170 742c91 0 146 -75 146 -198s-55 -199 -146 -199s-146 76 -146 199
s55 198 146 198zM170 660c-35 0 -55 -41 -55 -116s20 -117 55 -117s55 42 55 117s-20 116 -55 116z" />
    <glyph glyph-name="ampersand" unicode="&#x26;" horiz-adv-x="654" 
d="M292 484l150 -220c27 45 39 101 42 173h114c-7 -119 -35 -211 -83 -280l107 -157h-155l-36 53c-51 -45 -107 -67 -171 -67s-116 22 -156 67s-59 104 -59 175c0 95 33 164 112 233c-21 35 -30 69 -30 106c0 105 67 175 170 175c44 0 93 -9 145 -28v-136
c-46 32 -87 46 -126 46c-38 0 -59 -20 -59 -55c0 -23 12 -50 35 -85zM220 363c-33 -31 -48 -69 -48 -116c0 -37 10 -69 30 -96c21 -26 46 -39 75 -39c33 0 61 13 86 40z" />
    <glyph glyph-name="quotesingle" unicode="'" horiz-adv-x="229" 
d="M158 729v-271h-87v271h87z" />
    <glyph glyph-name="parenleft" unicode="(" horiz-adv-x="343" 
d="M283 -132h-109c-75 161 -110 302 -110 445s36 286 110 446h109c-63 -155 -94 -301 -94 -445s31 -291 94 -446z" />
    <glyph glyph-name="parenright" unicode=")" horiz-adv-x="343" 
d="M60 -132c63 155 94 302 94 446s-31 290 -94 445h109c74 -160 109 -303 109 -446s-34 -284 -109 -445h-109z" />
    <glyph glyph-name="asterisk" unicode="*" horiz-adv-x="392" 
d="M377 594l-121 -84l121 -85l-28 -69l-122 90v-168h-62v168l-122 -90l-28 69l122 85l-122 84l28 69l122 -89v168h62v-168l122 89z" />
    <glyph glyph-name="plus" unicode="+" horiz-adv-x="628" 
d="M358 627v-256h191v-115h-191v-256h-87v256h-192v115h192v256h87z" />
    <glyph glyph-name="comma" unicode="," horiz-adv-x="285" 
d="M76 189h132v-149l-90 -182h-78l36 182v149z" />
    <glyph glyph-name="hyphen" unicode="-" horiz-adv-x="311" 
d="M40 359h231v-142h-231v142z" />
    <glyph glyph-name="period" unicode="." horiz-adv-x="285" 
d="M76 189h132v-189h-132v189z" />
    <glyph glyph-name="slash" unicode="/" horiz-adv-x="274" 
d="M193 729h81l-193 -822h-81z" />
    <glyph glyph-name="zero" unicode="0" horiz-adv-x="522" 
d="M345 365c0 91 -7 156 -20 193c-12 37 -33 56 -64 56c-60 0 -84 -66 -84 -249c0 -184 24 -251 84 -251s84 67 84 251zM486 364c0 -241 -81 -378 -225 -378s-225 137 -225 378s81 378 225 378s225 -137 225 -378z" />
    <glyph glyph-name="one" unicode="1" horiz-adv-x="522" 
d="M88 130h124v471l-127 -35v128l126 35h135v-599h124v-130h-382v130z" />
    <glyph glyph-name="two" unicode="2" horiz-adv-x="522" 
d="M216 138h241v-138h-398v138l200 235c36 43 52 83 52 127c0 68 -37 114 -94 114c-45 0 -96 -26 -156 -75v160c63 28 126 43 185 43c131 0 207 -81 207 -218c0 -40 -8 -77 -23 -112c-16 -34 -48 -80 -97 -137z" />
    <glyph glyph-name="three" unicode="3" horiz-adv-x="522" 
d="M349 393c75 -25 113 -89 113 -186c0 -144 -85 -221 -244 -221c-56 0 -113 12 -168 36v145c53 -35 105 -53 155 -53c75 0 116 36 116 100c0 67 -41 101 -121 101h-56v121h59c71 0 105 29 105 90c0 56 -34 88 -97 88c-45 0 -92 -14 -138 -41v138c57 21 111 31 164 31
c142 0 212 -62 212 -187c0 -85 -34 -139 -100 -162z" />
    <glyph glyph-name="four" unicode="4" horiz-adv-x="522" 
d="M276 574l-155 -305h155v305zM253 729h156v-460h78v-136h-78v-133h-133v133h-242v161z" />
    <glyph glyph-name="five" unicode="5" horiz-adv-x="522" 
d="M79 729h351v-138h-238v-113c21 8 43 12 66 12c134 0 211 -93 211 -252c0 -79 -20 -140 -60 -185c-41 -45 -97 -67 -168 -67c-63 0 -123 16 -183 48v148c60 -45 113 -68 160 -68c68 0 110 48 110 124s-42 124 -110 124c-41 0 -85 -14 -139 -43v410z" />
    <glyph glyph-name="six" unicode="6" horiz-adv-x="522" 
d="M271 360c-48 0 -74 -43 -74 -128s26 -128 74 -128c51 0 75 43 75 128s-24 128 -75 128zM445 710v-135c-45 29 -86 43 -125 43c-84 0 -131 -62 -139 -185c32 32 69 48 114 48c56 0 101 -22 135 -66c34 -43 51 -100 51 -171c0 -78 -19 -141 -57 -188
c-39 -47 -90 -70 -154 -70c-142 0 -224 133 -224 368c0 121 23 215 69 284c45 69 108 103 187 103c50 0 98 -10 143 -31z" />
    <glyph glyph-name="seven" unicode="7" horiz-adv-x="522" 
d="M50 729h412v-106l-213 -623h-137l201 591h-263v138z" />
    <glyph glyph-name="eight" unicode="8" horiz-adv-x="522" 
d="M261 326c-53 0 -82 -39 -82 -111s29 -111 82 -111c52 0 81 39 81 111s-29 111 -81 111zM158 388c-66 27 -100 82 -100 165c0 124 70 189 203 189c132 0 202 -65 202 -189c0 -83 -34 -138 -100 -165c74 -27 112 -90 112 -183c0 -144 -72 -219 -214 -219s-215 75 -215 219
c0 93 38 156 112 183zM191 534c0 -57 25 -90 70 -90c44 0 69 33 69 90c0 59 -25 90 -69 90c-45 0 -70 -33 -70 -90z" />
    <glyph glyph-name="nine" unicode="9" horiz-adv-x="522" 
d="M75 16v135c45 -28 85 -42 125 -42c84 0 131 62 140 185c-33 -32 -70 -49 -114 -49c-57 0 -102 22 -136 65s-51 101 -51 172c0 79 19 141 57 188s90 71 154 71c143 0 224 -133 224 -368c0 -121 -23 -215 -69 -284s-108 -103 -188 -103c-51 0 -97 10 -142 30zM249 367
c49 0 74 43 74 128s-25 128 -74 128s-74 -43 -74 -128s25 -128 74 -128z" />
    <glyph glyph-name="colon" unicode=":" horiz-adv-x="300" 
d="M84 547h132v-189h-132v189zM84 189h132v-189h-132v189z" />
    <glyph glyph-name="semicolon" unicode=";" horiz-adv-x="300" 
d="M84 189h132v-149l-91 -182h-78l37 182v149zM84 547h132v-189h-132v189z" />
    <glyph glyph-name="less" unicode="&#x3c;" horiz-adv-x="628" 
d="M549 475l-353 -162l353 -161v-122l-470 226v115l470 226v-122z" />
    <glyph glyph-name="equal" unicode="=" horiz-adv-x="628" 
d="M79 482h470v-115h-470v115zM79 260h470v-116h-470v116z" />
    <glyph glyph-name="greater" unicode="&#x3e;" horiz-adv-x="628" 
d="M79 475v122l470 -226v-115l-470 -226v122l354 161z" />
    <glyph glyph-name="question" unicode="?" horiz-adv-x="435" 
d="M259 246h-132v24c0 27 4 50 12 71c9 21 25 47 51 79l24 28c27 35 40 64 40 93c0 45 -25 73 -67 73c-39 0 -85 -22 -135 -65v153c59 28 106 40 151 40c119 0 183 -66 183 -190c0 -64 -17 -110 -63 -167l-23 -28c-33 -40 -41 -60 -41 -89v-22zM127 174h132v-174h-132v174z
" />
    <glyph glyph-name="at" unicode="@" horiz-adv-x="750" 
d="M304 263c0 -80 27 -129 72 -129c42 0 71 50 71 129s-28 128 -72 128c-43 0 -71 -49 -71 -128zM454 116c-15 -45 -49 -73 -92 -73c-42 0 -76 20 -103 61c-26 41 -39 93 -39 158s13 118 39 159c27 41 61 61 103 61c43 0 77 -27 92 -74v64h77v-338c61 12 97 81 97 184
c0 65 -13 122 -42 170c-48 79 -120 124 -201 124c-56 0 -108 -20 -153 -59c-72 -64 -114 -169 -114 -288c0 -97 26 -184 76 -249c49 -64 113 -98 185 -98c61 0 127 33 171 85l39 -79c-60 -64 -135 -98 -209 -98c-90 0 -172 44 -235 125s-96 191 -96 314c0 119 34 230 96 311
c61 81 147 127 235 127c109 0 201 -57 261 -162c37 -64 56 -140 56 -221c0 -176 -84 -279 -228 -279h-15v75z" />
    <glyph glyph-name="A" unicode="A" horiz-adv-x="580" 
d="M400 133h-220l-35 -133h-141l202 729h168l203 -729h-142zM215 268h150l-75 290z" />
    <glyph glyph-name="B" unicode="B" horiz-adv-x="571" 
d="M288 447c44 0 67 26 67 77s-23 77 -67 77h-78v-154h78zM292 128c57 0 86 32 86 96c0 63 -29 95 -86 95h-82v-191h82zM424 390c60 -23 95 -89 95 -181c0 -140 -71 -209 -216 -209h-234v729h211c153 0 216 -58 216 -193c0 -71 -25 -122 -72 -146z" />
    <glyph glyph-name="C" unicode="C" horiz-adv-x="550" 
d="M502 40c-51 -36 -108 -54 -168 -54c-91 0 -164 34 -217 101c-53 68 -80 160 -80 277s27 209 80 276c53 68 126 102 217 102c60 0 117 -18 168 -54v-151c-51 48 -101 69 -157 69c-101 0 -162 -91 -162 -242s61 -242 162 -242c56 0 106 21 157 69v-151z" />
    <glyph glyph-name="D" unicode="D" horiz-adv-x="622" 
d="M210 587v-445h50c115 0 178 78 178 223s-62 222 -178 222h-50zM69 729h148c84 0 145 -8 186 -24c41 -15 75 -42 105 -80c51 -65 75 -151 75 -260s-24 -196 -75 -261c-30 -38 -65 -65 -106 -81c-41 -15 -103 -23 -185 -23h-148v729z" />
    <glyph glyph-name="E" unicode="E" horiz-adv-x="512" 
d="M69 729h380v-142h-239v-136h225v-142h-225v-167h247v-142h-388v729z" />
    <glyph glyph-name="F" unicode="F" horiz-adv-x="512" 
d="M69 729h380v-142h-239v-136h225v-142h-225v-309h-141v729z" />
    <glyph glyph-name="G" unicode="G" horiz-adv-x="616" 
d="M560 54c-70 -45 -146 -68 -226 -68c-91 0 -164 34 -217 101c-53 68 -80 160 -80 277s27 210 81 277c55 67 129 101 223 101c73 0 140 -18 199 -54v-151c-61 47 -121 69 -182 69c-111 0 -175 -87 -175 -242s61 -242 169 -242c30 0 54 4 75 15v142h-87v126h220v-351z" />
    <glyph glyph-name="H" unicode="H" horiz-adv-x="628" 
d="M69 729h141v-278h208v278h141v-729h-141v309h-208v-309h-141v729z" />
    <glyph glyph-name="I" unicode="I" horiz-adv-x="279" 
d="M69 729h141v-729h-141v729z" />
    <glyph glyph-name="J" unicode="J" horiz-adv-x="279" 
d="M69 729h141v-658c0 -181 -74 -271 -224 -271h-28v142h22c59 0 89 44 89 129v658z" />
    <glyph glyph-name="K" unicode="K" horiz-adv-x="581" 
d="M69 729h141v-266l203 266h164l-264 -345l291 -384h-177l-217 287v-287h-141v729z" />
    <glyph glyph-name="L" unicode="L" horiz-adv-x="478" 
d="M69 729h141v-587h247v-142h-388v729z" />
    <glyph glyph-name="M" unicode="M" horiz-adv-x="746" 
d="M69 729h179l125 -390l125 390h179v-729h-133v533l-126 -393h-90l-126 393v-533h-133v729z" />
    <glyph glyph-name="N" unicode="N" horiz-adv-x="628" 
d="M69 729h157l199 -500v500h134v-729h-158l-199 500v-500h-133v729z" />
    <glyph glyph-name="O" unicode="O" horiz-adv-x="637" 
d="M319 606c-87 0 -136 -89 -136 -242s49 -242 136 -242c86 0 135 89 135 242s-49 242 -135 242zM319 742c87 0 156 -34 206 -101s75 -159 75 -277s-25 -211 -75 -278s-119 -100 -206 -100c-88 0 -156 33 -207 100c-50 67 -75 160 -75 278s25 210 75 277
c51 67 119 101 207 101z" />
    <glyph glyph-name="P" unicode="P" horiz-adv-x="550" 
d="M69 729h234c139 0 216 -86 216 -238c0 -153 -77 -238 -216 -238h-93v-253h-141v729zM210 593v-204h78c54 0 85 37 85 102s-31 102 -85 102h-78z" />
    <glyph glyph-name="Q" unicode="Q" horiz-adv-x="637" 
d="M334 -13h-12c-90 0 -159 33 -210 99c-50 67 -75 159 -75 278c0 118 25 210 75 277c51 67 119 101 207 101s157 -33 207 -100c49 -66 74 -159 74 -278c0 -164 -54 -286 -153 -346l110 -164h-134zM319 606c-87 0 -136 -89 -136 -242c0 -156 48 -242 136 -242
c86 0 135 89 135 242s-49 242 -135 242z" />
    <glyph glyph-name="R" unicode="R" horiz-adv-x="577" 
d="M269 406c59 0 83 27 83 94s-24 93 -83 93h-59v-187h59zM210 276v-276h-141v729h215c144 0 209 -62 209 -201c0 -96 -36 -158 -105 -187c39 -12 67 -50 98 -134l76 -207h-150l-66 181c-27 73 -51 95 -96 95h-40z" />
    <glyph glyph-name="S" unicode="S" horiz-adv-x="540" 
d="M449 706v-154c-60 36 -118 54 -169 54c-66 0 -99 -24 -99 -76c0 -40 19 -58 76 -74l60 -16c121 -32 168 -93 168 -216c0 -160 -70 -238 -217 -238c-69 0 -140 17 -210 52v159c70 -49 135 -75 196 -75s95 28 95 79c0 45 -17 66 -83 86l-55 16c-108 32 -157 97 -157 213
c0 145 72 226 204 226c60 0 123 -12 191 -36z" />
    <glyph glyph-name="T" unicode="T" horiz-adv-x="511" 
d="M4 729h504v-142h-182v-587h-141v587h-181v142z" />
    <glyph glyph-name="U" unicode="U" horiz-adv-x="609" 
d="M69 729h141v-437c0 -120 28 -168 94 -168c67 0 95 48 95 168v437h141v-437c0 -207 -77 -306 -236 -306s-235 99 -235 306v437z" />
    <glyph glyph-name="V" unicode="V" horiz-adv-x="580" 
d="M4 729h141l145 -538l145 538h142l-203 -729h-168z" />
    <glyph glyph-name="W" unicode="W" horiz-adv-x="827" 
d="M22 729h135l95 -530l94 530h135l94 -530l95 530h134l-129 -729h-163l-99 554l-98 -554h-163z" />
    <glyph glyph-name="X" unicode="X" horiz-adv-x="578" 
d="M373 372l190 -372h-147l-127 249l-127 -249h-148l190 372l-182 357h147l120 -235l119 235h148z" />
    <glyph glyph-name="Y" unicode="Y" horiz-adv-x="543" 
d="M-8 729h155l124 -260l125 260h154l-208 -422v-307h-141v307z" />
    <glyph glyph-name="Z" unicode="Z" horiz-adv-x="544" 
d="M42 729h460v-114l-294 -473h302v-142h-476v114l293 473h-285v142z" />
    <glyph glyph-name="bracketleft" unicode="[" horiz-adv-x="343" 
d="M64 760h228v-110h-103v-672h103v-110h-228v892z" />
    <glyph glyph-name="backslash" unicode="\" horiz-adv-x="274" 
d="M193 -93l-193 822h81l193 -822h-81z" />
    <glyph glyph-name="bracketright" unicode="]" horiz-adv-x="343" 
d="M278 -132h-227v110h103v672h-103v110h227v-892z" />
    <glyph glyph-name="asciicircum" unicode="^" horiz-adv-x="628" 
d="M359 729l194 -272h-89l-150 147l-150 -147h-88l193 272h90z" />
    <glyph glyph-name="underscore" unicode="_" 
d="M375 -143v-93h-375v93h375z" />
    <glyph glyph-name="grave" unicode="`" 
d="M138 800l103 -184h-72l-135 184h104z" />
    <glyph glyph-name="a" unicode="a" horiz-adv-x="506" 
d="M247 246c-55 0 -83 -25 -83 -73c0 -44 24 -71 63 -71c50 0 88 53 88 124v20h-68zM447 312v-312h-132v81c-35 -67 -77 -95 -140 -95c-42 0 -77 16 -103 49s-40 76 -40 129c0 128 64 186 206 186h77v14c0 55 -32 80 -101 80c-57 0 -105 -16 -146 -45v133
c56 19 113 28 170 28c147 0 209 -73 209 -248z" />
    <glyph glyph-name="b" unicode="b" horiz-adv-x="537" 
d="M281 113c56 0 86 56 86 160s-30 160 -86 160s-87 -56 -87 -160s31 -160 87 -160zM194 467c36 64 79 93 136 93c50 0 92 -27 124 -81c33 -53 49 -122 49 -206c0 -85 -16 -154 -49 -207c-32 -53 -74 -80 -124 -80c-57 0 -100 29 -136 93v-79h-131v760h131v-293z" />
    <glyph glyph-name="c" unicode="c" horiz-adv-x="445" 
d="M394 530v-143c-36 33 -71 48 -109 48c-73 0 -116 -59 -116 -162s43 -162 116 -162c41 0 79 16 109 48v-143c-41 -20 -84 -30 -126 -30c-147 0 -236 107 -236 287s89 287 236 287c43 0 84 -10 126 -30z" />
    <glyph glyph-name="d" unicode="d" horiz-adv-x="537" 
d="M342 467v293h132v-760h-132v79c-36 -64 -78 -93 -135 -93c-50 0 -92 27 -125 80c-32 53 -48 122 -48 207c0 84 16 153 48 206c33 54 75 81 125 81c57 0 99 -29 135 -93zM256 113c56 0 86 56 86 160s-30 160 -86 160c-57 0 -87 -56 -87 -160s30 -160 87 -160z" />
    <glyph glyph-name="e" unicode="e" horiz-adv-x="508" 
d="M472 275v-50h-306c6 -81 45 -123 113 -123c55 0 113 22 174 66v-135c-62 -31 -124 -47 -186 -47c-148 0 -235 106 -235 287c0 89 20 159 61 210c40 51 96 77 166 77c65 0 117 -26 155 -78c39 -51 58 -120 58 -207zM337 333c0 67 -31 111 -78 111c-51 0 -84 -39 -92 -111
h170z" />
    <glyph glyph-name="f" unicode="f" horiz-adv-x="326" 
d="M333 760v-115h-73c-37 0 -49 -16 -49 -60v-38h111v-125h-111v-422h-132v422h-65v125h65v38c0 119 49 175 153 175h101z" />
    <glyph glyph-name="g" unicode="g" horiz-adv-x="537" 
d="M342 93c-36 -64 -78 -93 -135 -93c-50 0 -92 26 -125 79c-32 53 -48 120 -48 201s16 148 48 200c33 53 75 79 125 79c57 0 99 -29 135 -93v81h132v-492c0 -176 -86 -271 -244 -271c-51 0 -98 11 -146 32v136c46 -35 89 -52 133 -52c87 0 125 48 125 155v38zM256 433
c-54 0 -87 -56 -87 -153c0 -100 30 -153 87 -153c54 0 86 56 86 153s-32 153 -86 153z" />
    <glyph glyph-name="h" unicode="h" horiz-adv-x="534" 
d="M475 333v-333h-132v54v200c0 48 0 81 -2 98c-1 18 -4 31 -8 40c-10 23 -29 36 -51 36c-55 0 -88 -59 -88 -159v-269h-131v760h131v-293c39 64 83 93 137 93c95 0 144 -79 144 -227z" />
    <glyph glyph-name="i" unicode="i" horiz-adv-x="257" 
d="M63 547h131v-547h-131v547zM63 760h131v-143h-131v143z" />
    <glyph glyph-name="j" unicode="j" horiz-adv-x="257" 
d="M63 547h131v-537c0 -147 -55 -226 -154 -226h-65v115h23c50 0 65 23 65 111v537zM63 760h131v-143h-131v143z" />
    <glyph glyph-name="k" unicode="k" horiz-adv-x="499" 
d="M63 760h131v-414l151 201h152l-200 -251l216 -296h-159l-160 228v-228h-131v760z" />
    <glyph glyph-name="l" unicode="l" horiz-adv-x="257" 
d="M63 760h131v-760h-131v760z" />
    <glyph glyph-name="m" unicode="m" horiz-adv-x="781" 
d="M443 456c33 68 80 104 134 104c94 0 145 -79 145 -227v-333h-132v285c1 9 1 16 1 33c0 77 -16 110 -54 110c-50 0 -78 -56 -79 -159v-269h-132v285c0 61 -4 100 -12 117c-7 17 -21 26 -41 26c-51 0 -79 -56 -79 -159v-269h-132v547h132v-80c32 61 74 93 125 93
c56 0 101 -39 124 -104z" />
    <glyph glyph-name="n" unicode="n" horiz-adv-x="534" 
d="M475 333v-333h-132v54v201c0 47 0 80 -2 97c-1 18 -4 31 -8 40c-10 23 -29 36 -51 36c-55 0 -88 -59 -88 -159v-269h-131v547h131v-80c39 64 83 93 137 93c95 0 144 -79 144 -227z" />
    <glyph glyph-name="o" unicode="o" horiz-adv-x="515" 
d="M258 435c-58 0 -89 -57 -89 -162s31 -162 89 -162c57 0 88 57 88 162s-31 162 -88 162zM258 560c141 0 225 -107 225 -287s-84 -287 -225 -287s-226 107 -226 287s85 287 226 287z" />
    <glyph glyph-name="p" unicode="p" horiz-adv-x="537" 
d="M194 79v-287h-131v755h131v-80c36 64 79 93 136 93c50 0 92 -27 124 -81c33 -53 49 -122 49 -206c0 -85 -16 -154 -49 -207c-32 -53 -74 -80 -124 -80c-57 0 -100 29 -136 93zM281 433c-56 0 -87 -56 -87 -160s31 -160 87 -160s86 56 86 160s-30 160 -86 160z" />
    <glyph glyph-name="q" unicode="q" horiz-adv-x="537" 
d="M256 433c-57 0 -87 -56 -87 -160s30 -160 87 -160c56 0 86 56 86 160s-30 160 -86 160zM342 79c-36 -64 -78 -93 -135 -93c-50 0 -92 27 -125 80c-32 53 -48 122 -48 207c0 84 16 153 48 206c33 53 75 80 125 80c57 0 99 -29 135 -93v81h132v-755h-132v287z" />
    <glyph glyph-name="r" unicode="r" horiz-adv-x="370" 
d="M367 398c-23 15 -45 21 -68 21c-67 0 -105 -59 -105 -167v-252h-131v547h131v-90c33 72 76 103 137 103c9 0 16 0 36 -4v-158z" />
    <glyph glyph-name="s" unicode="s" horiz-adv-x="446" 
d="M383 530v-133c-56 31 -108 47 -155 47c-50 0 -74 -16 -74 -51c0 -28 16 -41 63 -49l24 -4c66 -11 111 -30 135 -56c23 -26 35 -67 35 -123c0 -116 -65 -175 -193 -175c-54 0 -112 11 -173 34v133c52 -35 107 -51 164 -51c51 0 77 19 77 56c0 32 -13 45 -66 53l-24 4
c-116 19 -157 67 -157 174c0 116 58 171 181 171c48 0 101 -10 163 -30z" />
    <glyph glyph-name="t" unicode="t" horiz-adv-x="358" 
d="M206 702v-155h135v-125h-135v-232c0 -51 11 -65 56 -65h68v-125h-113c-102 0 -142 51 -142 190v232h-65v125h65v155h131z" />
    <glyph glyph-name="u" unicode="u" horiz-adv-x="534" 
d="M58 213v334h132v-55v-112v-89c0 -88 3 -120 11 -137c11 -23 28 -36 51 -36c55 0 88 59 88 159v270h131v-547h-131v79c-39 -64 -83 -93 -136 -93c-95 0 -146 79 -146 227z" />
    <glyph glyph-name="v" unicode="v" horiz-adv-x="489" 
d="M11 547h131l102 -378l102 378h132l-162 -547h-144z" />
    <glyph glyph-name="w" unicode="w" horiz-adv-x="693" 
d="M26 547h128l69 -377l69 377h109l69 -373l69 373h128l-108 -547h-144l-69 376l-69 -376h-143z" />
    <glyph glyph-name="x" unicode="x" horiz-adv-x="484" 
d="M166 280l-147 267h138l84 -162l85 162h139l-148 -266l155 -281h-138l-93 173l-91 -173h-139z" />
    <glyph glyph-name="y" unicode="y" horiz-adv-x="489" 
d="M9 547h131l110 -371l94 371h131l-172 -599c-17 -61 -38 -103 -61 -127c-23 -25 -53 -37 -91 -37h-76v115h41c44 0 61 16 72 65l4 15z" />
    <glyph glyph-name="z" unicode="z" horiz-adv-x="436" 
d="M43 547h357v-122l-216 -300h216v-125h-366v122l216 300h-207v125z" />
    <glyph glyph-name="braceleft" unicode="{" horiz-adv-x="534" 
d="M440 -53v-110h-79c-106 0 -153 55 -153 180v94c0 97 -23 130 -92 130h-22v109h22c69 0 92 33 92 130v100c0 125 47 180 153 180h79v-110h-25c-35 0 -57 -7 -68 -22c-10 -14 -15 -44 -15 -90v-81c0 -103 -19 -142 -73 -158c54 -17 73 -58 73 -159v-81c0 -47 5 -77 15 -91
c11 -14 33 -21 68 -21h25z" />
    <glyph glyph-name="bar" unicode="|" horiz-adv-x="274" 
d="M178 764v-1000h-83v1000h83z" />
    <glyph glyph-name="braceright" unicode="}" horiz-adv-x="534" 
d="M94 -53h25c35 0 57 7 67 21s16 44 16 91v81c0 101 19 142 73 159c-54 16 -73 55 -73 158v81c0 46 -6 76 -16 90c-10 15 -32 22 -67 22h-25v110h79c106 0 153 -55 153 -180v-100c0 -97 23 -130 92 -130h22v-109h-22c-69 0 -92 -33 -92 -130v-94c0 -125 -47 -180 -153 -180
h-79v110z" />
    <glyph glyph-name="asciitilde" unicode="~" horiz-adv-x="628" 
d="M549 415v-119c-52 -52 -92 -73 -140 -73c-26 0 -56 9 -91 28c-4 2 -6 4 -8 5s-5 2 -9 4c-37 20 -67 30 -90 30c-43 0 -84 -25 -132 -78v119c52 52 93 73 140 73c26 0 56 -10 91 -29c4 -1 6 -3 9 -4c1 -1 4 -2 8 -4c37 -20 67 -30 91 -30c42 0 81 23 131 78z" />
    <glyph glyph-name="Euro" unicode="&#x20ac;" horiz-adv-x="522" 
d="M472 40c-46 -36 -98 -54 -152 -54c-128 0 -218 87 -255 247h-79l32 95h36c-1 9 -1 17 -1 36s0 28 1 37h-68l32 95h47c38 160 127 246 255 246c54 0 106 -18 152 -54v-151c-40 51 -85 77 -134 77c-62 0 -106 -41 -128 -118h197l-31 -95h-181c-1 -11 -1 -20 -1 -43
c0 -8 0 -19 1 -30h157l-33 -95h-109c24 -80 67 -119 128 -119c49 0 92 25 134 77v-151z" />
    <glyph glyph-name="quotesinglbase" unicode="&#x201a;" horiz-adv-x="285" 
d="M91 189h124v-139l-84 -172h-77l37 172v139z" />
    <glyph glyph-name="florin" unicode="&#x192;" horiz-adv-x="522" 
d="M489 740v-124c-23 19 -43 28 -63 28c-44 0 -67 -33 -80 -125l-12 -82h105v-116h-122l-49 -329c-20 -133 -75 -200 -168 -200c-33 0 -65 7 -98 20v124c22 -19 43 -28 63 -28c43 0 65 33 80 125l42 288h-88v116h106l18 123c21 135 75 200 168 200c33 0 65 -7 98 -20z" />
    <glyph glyph-name="quotedblbase" unicode="&#x201e;" horiz-adv-x="493" 
d="M91 189h124v-139l-84 -172h-77l37 172v139zM276 189h124v-140l-83 -171h-78l37 171v140z" />
    <glyph glyph-name="ellipsis" unicode="&#x2026;" horiz-adv-x="750" 
d="M559 189h132v-189h-132v189zM59 189h132v-189h-132v189zM309 189h132v-189h-132v189z" />
    <glyph glyph-name="dagger" unicode="&#x2020;" 
d="M125 729h121v-186h106v-116h-106v-523h-121v523h-106v116h106v186z" />
    <glyph glyph-name="daggerdbl" unicode="&#x2021;" 
d="M125 729h121v-186h106v-116h-106v-221h106v-116h-106v-186h-121v186h-106v116h106v221h-106v116h106v186z" />
    <glyph glyph-name="circumflex" unicode="&#x2c6;" 
d="M143 800h89l93 -184h-65l-73 110l-72 -110h-66z" />
    <glyph glyph-name="perthousand" unicode="&#x2030;" horiz-adv-x="1080" 
d="M916 301c-35 0 -54 -41 -54 -116s19 -116 54 -116c36 0 54 41 54 116s-18 116 -54 116zM916 383c91 0 147 -75 147 -198s-56 -199 -147 -199c-90 0 -147 76 -147 199s57 198 147 198zM170 660c-35 0 -55 -41 -55 -116s20 -117 55 -117s55 42 55 117s-20 116 -55 116z
M170 742c91 0 146 -75 146 -198s-55 -199 -146 -199s-146 76 -146 199s55 198 146 198zM245 -14h-81l342 756h81zM581 383c91 0 146 -75 146 -198s-55 -199 -146 -199s-147 76 -147 199s56 198 147 198zM581 301c-35 0 -55 -41 -55 -116s20 -116 55 -116s54 41 54 116
s-19 116 -54 116z" />
    <glyph glyph-name="Scaron" unicode="&#x160;" horiz-adv-x="540" 
d="M449 706v-154c-60 36 -118 54 -169 54c-66 0 -99 -24 -99 -76c0 -40 19 -58 76 -74l60 -16c121 -32 168 -93 168 -216c0 -160 -70 -238 -217 -238c-69 0 -140 17 -210 52v159c70 -49 135 -75 196 -75s95 28 95 79c0 45 -17 66 -83 86l-55 16c-108 32 -157 97 -157 213
c0 145 72 226 204 226c60 0 123 -12 191 -36zM205 798l-82 129h65l73 -79l73 79h65l-82 -129h-112z" />
    <glyph glyph-name="guilsinglleft" unicode="&#x2039;" horiz-adv-x="309" 
d="M238 519v-118l-107 -108l107 -108v-118l-180 180v91z" />
    <glyph glyph-name="OE" unicode="&#x152;" horiz-adv-x="875" 
d="M432 587h-38c-141 0 -211 -73 -211 -222s70 -223 211 -223h38v445zM399 729h413v-142h-239v-136h225v-142h-225v-167h247v-142h-421c-6 0 -20 -1 -26 -1c-216 0 -336 131 -336 366s120 365 336 365c5 0 20 -1 26 -1z" />
    <glyph glyph-name="quoteleft" unicode="&#x2018;" horiz-adv-x="285" 
d="M202 418h-125v139l83 172h78l-36 -172v-139z" />
    <glyph glyph-name="quoteright" unicode="&#x2019;" horiz-adv-x="285" 
d="M84 729h124v-139l-83 -172h-78l37 172v139z" />
    <glyph glyph-name="quotedblleft" unicode="&#x201c;" horiz-adv-x="493" 
d="M387 418h-125v138l84 173h78l-37 -173v-138zM202 418h-125v139l83 172h78l-36 -172v-139z" />
    <glyph glyph-name="quotedblright" unicode="&#x201d;" horiz-adv-x="493" 
d="M106 729h124v-139l-83 -172h-78l37 172v139zM291 729h124v-140l-83 -171h-78l37 171v140z" />
    <glyph glyph-name="bullet" unicode="&#x2022;" horiz-adv-x="479" 
d="M108 372c0 48 13 92 38 124c26 33 58 51 94 51c35 0 68 -18 93 -51s38 -76 38 -124s-13 -92 -38 -125s-58 -51 -94 -51s-68 18 -93 51s-38 77 -38 125z" />
    <glyph glyph-name="endash" unicode="&#x2013;" 
d="M0 337h375v-126h-375v126z" />
    <glyph glyph-name="emdash" unicode="&#x2014;" horiz-adv-x="750" 
d="M0 337h750v-126h-750v126z" />
    <glyph glyph-name="tilde" unicode="&#x2dc;" 
d="M188 666l-20 18c-1 1 -2 2 -4 3c-11 10 -20 15 -26 15c-17 0 -27 -20 -27 -59v-4h-51c0 89 26 139 72 139c17 0 34 -8 55 -28l22 -21c11 -9 20 -15 27 -15c18 0 28 22 28 59v4h51c0 -89 -26 -139 -72 -139c-17 0 -32 7 -55 28z" />
    <glyph glyph-name="trademark" unicode="&#x2122;" horiz-adv-x="750" 
d="M422 729l44 -111l43 111h83v-282h-62v213l-50 -125h-28l-50 125v-213h-63v282h83zM298 729v-70h-64v-212h-63v212h-63v70h190z" />
    <glyph glyph-name="scaron" unicode="&#x161;" horiz-adv-x="446" 
d="M383 530v-133c-56 31 -108 47 -155 47c-50 0 -74 -16 -74 -51c0 -28 16 -41 63 -49l24 -4c66 -11 111 -30 135 -56c23 -26 35 -67 35 -123c0 -116 -65 -175 -193 -175c-54 0 -112 11 -173 34v133c52 -35 107 -51 164 -51c51 0 77 19 77 56c0 32 -13 45 -66 53l-24 4
c-116 19 -157 67 -157 174c0 116 58 171 181 171c48 0 101 -10 163 -30zM179 616l-94 184h66l72 -111l73 111h65l-93 -184h-89z" />
    <glyph glyph-name="guilsinglright" unicode="&#x203a;" horiz-adv-x="309" 
d="M70 519l181 -181v-91l-181 -180v118l108 108l-108 108v118z" />
    <glyph glyph-name="oe" unicode="&#x153;" horiz-adv-x="820" 
d="M649 333c0 67 -31 111 -78 111c-51 0 -84 -39 -92 -111h170zM784 275v-50h-306c6 -81 45 -123 113 -123c55 0 113 22 174 66v-135c-62 -31 -125 -47 -186 -47c-81 0 -130 25 -165 82c-40 -55 -92 -82 -156 -82c-141 0 -226 107 -226 287s85 287 226 287
c66 0 115 -26 154 -82c40 57 87 82 153 82c68 0 121 -26 160 -77c40 -51 59 -120 59 -208zM258 435c-58 0 -89 -57 -89 -162s31 -162 89 -162c57 0 88 57 88 162s-31 162 -88 162z" />
    <glyph glyph-name="Ydieresis" unicode="&#x178;" horiz-adv-x="543" 
d="M-8 729h155l124 -260l125 260h154l-208 -422v-307h-141v307zM147 927h86v-120h-86v120zM292 927h86v-120h-86v120z" />
    <glyph glyph-name="exclamdown" unicode="&#xa1;" horiz-adv-x="342" 
d="M105 0v280l19 204h94l19 -204v-280h-132zM105 555v174h132v-174h-132z" />
    <glyph glyph-name="cent" unicode="&#xa2;" horiz-adv-x="522" 
d="M257 419c-38 -29 -57 -75 -57 -146s19 -119 57 -146v292zM425 530v-143c-36 32 -71 48 -103 48h-6v-324c43 1 81 17 109 48v-143c-41 -20 -77 -30 -105 -30h-4v-139h-59v141c-128 25 -193 125 -193 293c0 159 67 255 193 278v140h59v-140c36 -1 71 -12 109 -29z" />
    <glyph glyph-name="sterling" unicode="&#xa3;" horiz-adv-x="522" 
d="M455 716v-140c-34 25 -71 38 -108 38c-58 0 -85 -40 -85 -125v-83h137v-117h-137v-159h198v-130h-414v130h83v159h-71v117h71v83c0 176 59 253 193 253c45 0 89 -9 133 -26z" />
    <glyph glyph-name="currency" unicode="&#xa4;" horiz-adv-x="477" 
d="M159 131l-76 -101l-56 75l76 101c-13 32 -21 66 -21 107s8 75 22 106l-76 100l56 75l76 -101c23 20 49 29 79 29c26 0 53 -8 80 -27l76 101l56 -75l-76 -101c14 -36 21 -72 21 -107c0 -41 -7 -74 -22 -105l76 -101l-56 -75l-76 101c-23 -20 -48 -29 -79 -29
c-28 0 -54 8 -80 27zM239 206c44 0 80 47 80 107s-35 107 -80 107s-80 -47 -80 -107s34 -107 80 -107z" />
    <glyph glyph-name="yen" unicode="&#xa5;" horiz-adv-x="522" 
d="M497 203h-166v-203h-140v203h-166v95h166v32l-18 42h-148v94h107l-123 263h146l106 -225l106 225h146l-123 -263h107v-94h-148l-18 -42v-32h166v-95z" />
    <glyph glyph-name="brokenbar" unicode="&#xa6;" horiz-adv-x="274" 
d="M178 699v-370h-83v370h83zM178 199v-370h-83v370h83z" />
    <glyph glyph-name="section" unicode="&#xa7;" 
d="M324 714v-111c-48 25 -87 38 -115 38c-37 0 -55 -16 -55 -47c0 -21 23 -45 69 -71c6 -3 11 -6 14 -8c51 -29 86 -57 106 -86c19 -28 29 -62 29 -103c0 -76 -27 -127 -84 -158c37 -27 55 -63 55 -111c0 -95 -62 -152 -166 -152c-42 0 -85 9 -135 28v116
c56 -27 102 -41 130 -41c32 0 52 17 52 44c0 23 -22 46 -66 70c-9 5 -16 8 -20 11c-99 56 -133 109 -133 193c0 68 27 118 82 151c-36 33 -51 67 -51 116c0 93 59 149 157 149c42 0 86 -9 131 -28zM159 418c-33 -19 -50 -43 -50 -75c0 -22 8 -41 23 -57s45 -35 89 -56
c32 15 50 42 50 75c0 44 -31 76 -112 113z" />
    <glyph glyph-name="dieresis" unicode="&#xa8;" 
d="M72 774h86v-120h-86v120zM217 774h86v-120h-86v120z" />
    <glyph glyph-name="copyright" unicode="&#xa9;" horiz-adv-x="750" 
d="M484 550v-105c-27 24 -54 35 -82 35c-55 0 -88 -45 -88 -118c0 -75 32 -118 88 -118c31 0 61 12 82 35v-104c-32 -15 -64 -22 -94 -22c-52 0 -93 19 -124 57s-46 89 -46 152s15 114 46 152s72 57 124 57c34 0 64 -6 94 -21zM375 650c-59 0 -110 -29 -152 -85
c-43 -57 -64 -124 -64 -203s21 -146 64 -203c42 -56 93 -84 152 -84c60 0 110 28 152 84c43 57 64 124 64 203s-21 146 -64 203s-93 85 -152 85zM375 725c74 0 139 -36 192 -107s79 -156 79 -256c0 -99 -26 -184 -79 -255s-118 -107 -192 -107s-139 36 -192 107
s-80 156 -80 255c0 100 27 185 80 256s118 107 192 107z" />
    <glyph glyph-name="ordfeminine" unicode="&#xaa;" horiz-adv-x="423" 
d="M64 280h298v-98h-298v98zM235 528c-65 0 -87 -16 -87 -56c0 -33 17 -53 46 -53c43 0 74 42 74 98v11h-33zM367 569v-219h-90v62c-27 -49 -60 -72 -106 -72c-71 0 -113 46 -113 122c0 92 49 133 159 133h51v10c0 36 -23 56 -64 56c-43 0 -83 -11 -122 -34v88
c45 19 87 27 123 27c109 0 162 -56 162 -173z" />
    <glyph glyph-name="guillemotleft" unicode="&#xab;" horiz-adv-x="484" 
d="M238 519v-118l-107 -108l107 -108v-118l-180 180v91zM414 519v-118l-107 -108l107 -108v-118l-181 180v91z" />
    <glyph glyph-name="logicalnot" unicode="&#xac;" horiz-adv-x="628" 
d="M79 444h470v-304h-86v188h-384v116z" />
    <glyph glyph-name="minus" unicode="&#x2212;" horiz-adv-x="628" 
d="M79 371h470v-115h-470v115z" />
    <glyph glyph-name="registered" unicode="&#xae;" horiz-adv-x="750" 
d="M375 650c-59 0 -110 -29 -152 -85c-43 -57 -64 -124 -64 -203s21 -146 64 -203c42 -56 93 -84 152 -84c60 0 110 28 152 84c43 57 64 124 64 203s-21 146 -64 203s-93 85 -152 85zM354 506h-13v-101h13c38 0 58 18 58 51s-19 50 -58 50zM367 573c87 0 129 -38 129 -117
c0 -56 -27 -94 -74 -105c20 -15 38 -41 52 -78l40 -108h-84l-39 104c-18 51 -31 70 -45 70h-5v-174h-78v408h104zM375 725c74 0 139 -36 192 -107s79 -156 79 -256c0 -99 -26 -184 -79 -255s-118 -107 -192 -107s-139 36 -192 107s-80 156 -80 255c0 100 27 185 80 256
s118 107 192 107z" />
    <glyph glyph-name="macron" unicode="&#xaf;" 
d="M72 760h231v-92h-231v92z" />
    <glyph glyph-name="degree" unicode="&#xb0;" 
d="M187 670c-35 0 -63 -37 -63 -84s27 -83 63 -83s63 36 63 83s-27 84 -63 84zM187 749c33 0 63 -17 87 -48c23 -31 35 -71 35 -115s-13 -85 -35 -114c-23 -31 -54 -48 -87 -48c-35 0 -64 15 -87 46c-24 31 -35 70 -35 116s12 85 35 116c24 31 53 47 87 47z" />
    <glyph glyph-name="plusminus" unicode="&#xb1;" horiz-adv-x="628" 
d="M358 627v-173h191v-115h-191v-173h-87v173h-192v115h192v173h87zM79 116h470v-116h-470v116z" />
    <glyph glyph-name="twosuperior" unicode="&#xb2;" horiz-adv-x="328" 
d="M151 408h135v-82h-246v75l114 130c30 35 42 59 42 84c0 33 -19 55 -48 55c-30 0 -65 -14 -106 -45v91c43 17 82 26 119 26c77 0 124 -45 124 -117c0 -47 -14 -80 -63 -136z" />
    <glyph glyph-name="threesuperior" unicode="&#xb3;" horiz-adv-x="328" 
d="M217 547c45 -12 71 -50 71 -102c0 -84 -48 -126 -146 -126c-40 0 -76 7 -109 22v85c32 -24 64 -36 93 -36c46 0 73 21 73 60c0 41 -25 61 -81 61h-27v67h30c48 0 69 15 69 48c0 29 -18 44 -57 44c-27 0 -57 -9 -90 -26v81c32 11 69 17 111 17c81 0 126 -37 126 -106
c0 -44 -24 -77 -63 -89z" />
    <glyph glyph-name="acute" unicode="&#xb4;" 
d="M237 800h103l-135 -184h-72z" />
    <glyph glyph-name="mu" unicode="&#xb5;" horiz-adv-x="552" 
d="M64 -209v756h132v-318c0 -76 24 -112 74 -112s74 36 74 112v318h132v-366c0 -47 8 -62 26 -62c9 0 17 3 26 11v-122c-26 -15 -48 -22 -70 -22c-44 0 -70 22 -87 77c-23 -52 -56 -77 -99 -77c-36 0 -61 15 -76 46v-241h-132z" />
    <glyph glyph-name="mu" unicode="&#x3bc;" horiz-adv-x="552" 
d="M64 -209v756h132v-318c0 -76 24 -112 74 -112s74 36 74 112v318h132v-366c0 -47 8 -62 26 -62c9 0 17 3 26 11v-122c-26 -15 -48 -22 -70 -22c-44 0 -70 22 -87 77c-23 -52 -56 -77 -99 -77c-36 0 -61 15 -76 46v-241h-132z" />
    <glyph glyph-name="paragraph" unicode="&#xb6;" horiz-adv-x="477" 
d="M221 729h191v-825h-70v753h-69v-753h-70v413c-100 16 -156 90 -156 206c0 62 16 112 47 149c33 38 75 57 127 57z" />
    <glyph glyph-name="periodcentered" unicode="&#xb7;" horiz-adv-x="285" 
d="M76 442h132v-189h-132v189z" />
    <glyph glyph-name="cedilla" unicode="&#xb8;" 
d="M220 0c28 -40 42 -74 42 -105c0 -61 -30 -91 -92 -91c-23 0 -48 5 -74 13v74c24 -11 45 -15 61 -15c27 0 45 15 45 42c0 17 -11 43 -33 82h51z" />
    <glyph glyph-name="onesuperior" unicode="&#xb9;" horiz-adv-x="328" 
d="M52 403h75v254l-82 -25v78l84 24h82v-331h75v-77h-234v77z" />
    <glyph glyph-name="ordmasculine" unicode="&#xba;" horiz-adv-x="423" 
d="M211 742c105 0 169 -77 169 -201s-64 -200 -169 -200c-104 0 -168 76 -168 200s64 201 168 201zM61 280h301v-98h-301v98zM211 659c-41 0 -63 -42 -63 -118s22 -117 63 -117c42 0 64 41 64 117s-22 118 -64 118z" />
    <glyph glyph-name="guillemotright" unicode="&#xbb;" horiz-adv-x="484" 
d="M246 519l181 -181v-91l-181 -180v118l107 108l-107 108v118zM70 519l180 -181v-91l-180 -180v118l108 108l-108 108v118z" />
    <glyph glyph-name="onequarter" unicode="&#xbc;" horiz-adv-x="776" 
d="M583 313l-87 -158h87v158zM577 408h90v-253h51v-76h-51v-79h-84v79h-143v82zM268 -14h-81l342 756h81zM43 403h75v254l-81 -25v78l84 24h81v-331h75v-77h-234v77z" />
    <glyph glyph-name="onehalf" unicode="&#xbd;" horiz-adv-x="776" 
d="M604 82h136v-82h-247v75l115 131c30 35 41 58 41 83c0 32 -19 55 -48 55c-30 0 -63 -14 -105 -45v91c42 17 82 26 118 26c77 0 124 -44 124 -116c0 -47 -15 -82 -63 -137zM268 -14h-81l342 756h81zM43 403h75v254l-81 -25v78l84 24h81v-331h75v-77h-234v77z" />
    <glyph glyph-name="threequarters" unicode="&#xbe;" horiz-adv-x="776" 
d="M577 408h90v-253h51v-76h-51v-79h-84v79h-143v82zM583 313l-87 -158h87v158zM222 547c45 -12 71 -50 71 -102c0 -84 -48 -126 -146 -126c-40 0 -76 7 -109 22v85c32 -24 64 -36 93 -36c46 0 73 21 73 60c0 41 -25 61 -81 61h-27v67h31c48 0 69 15 69 48
c0 29 -19 44 -58 44c-26 0 -55 -9 -90 -26v81c32 11 69 17 111 17c81 0 126 -37 126 -106c0 -44 -23 -77 -63 -89zM268 -14h-81l342 756h81z" />
    <glyph glyph-name="questiondown" unicode="&#xbf;" horiz-adv-x="435" 
d="M178 482h132v-24c0 -27 -3 -50 -12 -71c-8 -20 -25 -46 -51 -79l-24 -28c-27 -33 -39 -62 -39 -93c0 -45 24 -73 66 -73c40 0 87 22 136 65v-153c-58 -28 -106 -40 -151 -40c-120 0 -183 66 -183 190c0 64 17 110 63 167l23 28c33 40 40 60 40 89v22zM310 555h-132v174
h132v-174z" />
    <glyph glyph-name="Agrave" unicode="&#xc0;" horiz-adv-x="580" 
d="M400 133h-220l-35 -133h-141l202 729h168l203 -729h-142zM215 268h150l-75 290zM262 927l73 -129h-72l-104 129h103z" />
    <glyph glyph-name="Aacute" unicode="&#xc1;" horiz-adv-x="580" 
d="M400 133h-220l-35 -133h-141l202 729h168l203 -729h-142zM215 268h150l-75 290zM300 927h103l-104 -129h-72z" />
    <glyph glyph-name="Acircumflex" unicode="&#xc2;" horiz-adv-x="580" 
d="M400 133h-220l-35 -133h-141l202 729h168l203 -729h-142zM215 268h150l-75 290zM225 927h112l82 -129h-65l-73 79l-73 -79h-65z" />
    <glyph glyph-name="Atilde" unicode="&#xc3;" horiz-adv-x="580" 
d="M400 133h-220l-35 -133h-141l202 729h168l203 -729h-142zM215 268h150l-75 290zM282 822l-20 17c-1 1 -3 2 -4 3c-11 9 -20 13 -27 13c-16 0 -26 -21 -26 -54v-3h-51v15c0 69 29 115 72 115c18 0 36 -8 54 -24l22 -19c10 -9 20 -14 28 -14c18 0 28 20 28 57h51
c0 -4 -1 -12 -1 -15c0 -69 -29 -115 -71 -115c-18 0 -35 7 -55 24z" />
    <glyph glyph-name="Adieresis" unicode="&#xc4;" horiz-adv-x="580" 
d="M400 133h-220l-35 -133h-141l202 729h168l203 -729h-142zM215 268h150l-75 290zM166 927h86v-120h-86v120zM310 927h87v-120h-87v120z" />
    <glyph glyph-name="Aring" unicode="&#xc5;" horiz-adv-x="580" 
d="M378 715l199 -715h-142l-35 133h-220l-35 -133h-141l198 715c-11 21 -16 46 -16 74c0 38 10 71 31 98c20 27 45 41 73 41c29 0 53 -14 74 -41c20 -27 30 -60 30 -98c0 -31 -5 -55 -16 -74zM242 789c0 -35 22 -64 48 -64c27 0 48 29 48 64s-22 64 -48 64s-48 -29 -48 -64z
M215 268h150l-75 290z" />
    <glyph glyph-name="AE" unicode="&#xc6;" horiz-adv-x="814" 
d="M326 604l-94 -298h138v298h-44zM229 729h522v-142h-240v-136h225v-142h-225v-167h248v-142h-389v171h-180l-54 -171h-136z" />
    <glyph glyph-name="Ccedilla" unicode="&#xc7;" horiz-adv-x="550" 
d="M502 40c-51 -36 -108 -54 -168 -54c-91 0 -164 34 -217 101c-53 68 -80 160 -80 277s27 209 80 276c53 68 126 102 217 102c60 0 117 -18 168 -54v-151c-51 48 -101 69 -157 69c-101 0 -162 -91 -162 -242s61 -242 162 -242c56 0 106 21 157 69v-151zM356 0
c28 -40 42 -74 42 -105c0 -61 -30 -91 -92 -91c-23 0 -48 5 -74 13v74c24 -11 45 -15 61 -15c27 0 45 15 45 42c0 17 -11 43 -33 82h51z" />
    <glyph glyph-name="Egrave" unicode="&#xc8;" horiz-adv-x="512" 
d="M69 729h380v-142h-239v-136h225v-142h-225v-167h247v-142h-388v729zM235 927l72 -129h-72l-104 129h104z" />
    <glyph glyph-name="Eacute" unicode="&#xc9;" horiz-adv-x="512" 
d="M69 729h380v-142h-239v-136h225v-142h-225v-167h247v-142h-388v729zM272 927h104l-105 -129h-72z" />
    <glyph glyph-name="Ecircumflex" unicode="&#xca;" horiz-adv-x="512" 
d="M69 729h380v-142h-239v-136h225v-142h-225v-167h247v-142h-388v729zM197 927h113l81 -129h-65l-73 79l-72 -79h-66z" />
    <glyph glyph-name="Edieresis" unicode="&#xcb;" horiz-adv-x="512" 
d="M69 729h380v-142h-239v-136h225v-142h-225v-167h247v-142h-388v729zM138 927h86v-120h-86v120zM283 927h86v-120h-86v120z" />
    <glyph glyph-name="Igrave" unicode="&#xcc;" horiz-adv-x="279" 
d="M69 729h141v-729h-141v729zM112 927l72 -129h-72l-104 129h104z" />
    <glyph glyph-name="Iacute" unicode="&#xcd;" horiz-adv-x="279" 
d="M69 729h141v-729h-141v729zM149 927h104l-105 -129h-72z" />
    <glyph glyph-name="Icircumflex" unicode="&#xce;" horiz-adv-x="279" 
d="M69 729h141v-729h-141v729zM74 927h113l81 -129h-65l-73 79l-72 -79h-66z" />
    <glyph glyph-name="Idieresis" unicode="&#xcf;" horiz-adv-x="279" 
d="M69 729h141v-729h-141v729zM15 927h86v-120h-86v120zM160 927h86v-120h-86v120z" />
    <glyph glyph-name="Eth" unicode="&#xd0;" horiz-adv-x="628" 
d="M217 587v-157h86v-127h-86v-161h50c115 0 178 78 178 223s-62 222 -178 222h-50zM76 729h148c83 0 145 -8 185 -24c41 -15 76 -42 105 -80c51 -65 76 -151 76 -260s-25 -196 -76 -261c-29 -38 -64 -65 -105 -81c-42 -15 -103 -23 -185 -23h-148v303h-64v127h64v299z" />
    <glyph glyph-name="Ntilde" unicode="&#xd1;" horiz-adv-x="628" 
d="M69 729h157l199 -500v500h134v-729h-158l-199 500v-500h-133v729zM301 822l-20 17c-1 1 -2 2 -4 3c-11 9 -20 13 -27 13c-15 0 -26 -21 -26 -54v-3h-51c0 4 1 11 1 15c0 69 28 115 71 115c18 0 36 -8 55 -24l22 -19c9 -9 19 -14 27 -14c18 0 28 20 28 57h51
c0 -4 -1 -12 -1 -15c0 -69 -28 -115 -71 -115c-18 0 -34 7 -55 24z" />
    <glyph glyph-name="Ograve" unicode="&#xd2;" horiz-adv-x="637" 
d="M319 606c-87 0 -136 -89 -136 -242s49 -242 136 -242c86 0 135 89 135 242s-49 242 -135 242zM319 742c87 0 156 -34 206 -101s75 -159 75 -277s-25 -211 -75 -278s-119 -100 -206 -100c-88 0 -156 33 -207 100c-50 67 -75 160 -75 278s25 210 75 277
c51 67 119 101 207 101zM291 927l73 -129h-72l-105 129h104z" />
    <glyph glyph-name="Oacute" unicode="&#xd3;" horiz-adv-x="637" 
d="M319 606c-87 0 -136 -89 -136 -242s49 -242 136 -242c86 0 135 89 135 242s-49 242 -135 242zM319 742c87 0 156 -34 206 -101s75 -159 75 -277s-25 -211 -75 -278s-119 -100 -206 -100c-88 0 -156 33 -207 100c-50 67 -75 160 -75 278s25 210 75 277
c51 67 119 101 207 101zM328 927h104l-104 -129h-72z" />
    <glyph glyph-name="Ocircumflex" unicode="&#xd4;" horiz-adv-x="637" 
d="M319 606c-87 0 -136 -89 -136 -242s49 -242 136 -242c86 0 135 89 135 242s-49 242 -135 242zM319 742c87 0 156 -34 206 -101s75 -159 75 -277s-25 -211 -75 -278s-119 -100 -206 -100c-88 0 -156 33 -207 100c-50 67 -75 160 -75 278s25 210 75 277
c51 67 119 101 207 101zM253 927h113l82 -129h-66l-72 79l-73 -79h-65z" />
    <glyph glyph-name="Otilde" unicode="&#xd5;" horiz-adv-x="637" 
d="M319 606c-87 0 -136 -89 -136 -242s49 -242 136 -242c86 0 135 89 135 242s-49 242 -135 242zM319 742c87 0 156 -34 206 -101s75 -159 75 -277s-25 -211 -75 -278s-119 -100 -206 -100c-88 0 -156 33 -207 100c-50 67 -75 160 -75 278s25 210 75 277
c51 67 119 101 207 101zM310 822l-20 17c-1 1 -2 2 -4 3c-11 9 -20 13 -27 13c-15 0 -26 -21 -26 -54v-3h-51c0 4 1 11 1 15c0 69 28 115 71 115c18 0 36 -8 55 -24l22 -19c9 -9 19 -14 27 -14c18 0 28 20 28 57h51c0 -4 -1 -12 -1 -15c0 -69 -28 -115 -71 -115
c-18 0 -34 7 -55 24z" />
    <glyph glyph-name="Odieresis" unicode="&#xd6;" horiz-adv-x="637" 
d="M319 606c-87 0 -136 -89 -136 -242s49 -242 136 -242c86 0 135 89 135 242s-49 242 -135 242zM319 742c87 0 156 -34 206 -101s75 -159 75 -277s-25 -211 -75 -278s-119 -100 -206 -100c-88 0 -156 33 -207 100c-50 67 -75 160 -75 278s25 210 75 277
c51 67 119 101 207 101zM194 927h86v-120h-86v120zM339 927h86v-120h-86v120z" />
    <glyph glyph-name="multiply" unicode="&#xd7;" horiz-adv-x="628" 
d="M535 525l-159 -212l159 -211l-62 -82l-159 211l-159 -211l-61 82l159 211l-159 212l61 82l159 -212l159 212z" />
    <glyph glyph-name="Oslash" unicode="&#xd8;" horiz-adv-x="637" 
d="M221 181c25 -40 56 -59 98 -59c86 0 135 89 135 242c0 44 -3 82 -11 114zM415 550c-25 37 -57 56 -96 56c-87 0 -136 -89 -136 -242c0 -41 4 -80 10 -109zM91 119c-36 65 -54 146 -54 245c0 118 25 210 75 277c51 67 119 101 207 101c75 0 134 -23 184 -74l73 97l41 -56
l-73 -97c38 -65 56 -148 56 -248c0 -118 -25 -211 -75 -278s-119 -100 -206 -100c-75 0 -137 25 -187 77l-74 -99l-42 55z" />
    <glyph glyph-name="Ugrave" unicode="&#xd9;" horiz-adv-x="609" 
d="M69 729h141v-437c0 -120 28 -168 94 -168c67 0 95 48 95 168v437h141v-437c0 -207 -77 -306 -236 -306s-235 99 -235 306v437zM277 927l72 -129h-72l-104 129h104z" />
    <glyph glyph-name="Uacute" unicode="&#xda;" horiz-adv-x="609" 
d="M69 729h141v-437c0 -120 28 -168 94 -168c67 0 95 48 95 168v437h141v-437c0 -207 -77 -306 -236 -306s-235 99 -235 306v437zM314 927h104l-105 -129h-72z" />
    <glyph glyph-name="Ucircumflex" unicode="&#xdb;" horiz-adv-x="609" 
d="M69 729h141v-437c0 -120 28 -168 94 -168c67 0 95 48 95 168v437h141v-437c0 -207 -77 -306 -236 -306s-235 99 -235 306v437zM239 927h113l81 -129h-65l-73 79l-72 -79h-66z" />
    <glyph glyph-name="Udieresis" unicode="&#xdc;" horiz-adv-x="609" 
d="M69 729h141v-437c0 -120 28 -168 94 -168c67 0 95 48 95 168v437h141v-437c0 -207 -77 -306 -236 -306s-235 99 -235 306v437zM180 927h86v-120h-86v120zM325 927h86v-120h-86v120z" />
    <glyph glyph-name="Yacute" unicode="&#xdd;" horiz-adv-x="543" 
d="M-8 729h155l124 -260l125 260h154l-208 -422v-307h-141v307zM281 927h104l-105 -129h-72z" />
    <glyph glyph-name="Thorn" unicode="&#xde;" horiz-adv-x="553" 
d="M210 126v-126h-141v729h141v-127h93c139 0 216 -85 216 -238c0 -152 -77 -238 -216 -238h-93zM210 467v-205h78c54 0 85 37 85 102s-31 103 -85 103h-78z" />
    <glyph glyph-name="germandbls" unicode="&#xdf;" horiz-adv-x="539" 
d="M63 544c0 144 66 216 199 216c128 0 194 -75 194 -216v-35c-74 -7 -108 -31 -108 -79c0 -24 7 -38 52 -71l25 -18c57 -41 82 -95 82 -171c0 -123 -56 -184 -169 -184c-32 0 -65 8 -101 24v119c27 -17 55 -27 82 -27c36 0 59 26 59 63c0 15 -4 28 -11 39
c-6 11 -21 26 -45 44l-26 19c-43 32 -63 75 -63 134c0 76 33 126 104 158c0 56 -24 85 -69 85c-48 0 -74 -36 -74 -107v-537h-131v544z" />
    <glyph glyph-name="agrave" unicode="&#xe0;" horiz-adv-x="506" 
d="M247 246c-55 0 -83 -25 -83 -73c0 -44 24 -71 63 -71c50 0 88 53 88 124v20h-68zM447 312v-312h-132v81c-35 -67 -77 -95 -140 -95c-42 0 -77 16 -103 49s-40 76 -40 129c0 128 64 186 206 186h77v14c0 55 -32 80 -101 80c-57 0 -105 -16 -146 -45v133
c56 19 113 28 170 28c147 0 209 -73 209 -248zM206 800l103 -184h-72l-135 184h104z" />
    <glyph glyph-name="aacute" unicode="&#xe1;" horiz-adv-x="506" 
d="M247 246c-55 0 -83 -25 -83 -73c0 -44 24 -71 63 -71c50 0 88 53 88 124v20h-68zM447 312v-312h-132v81c-35 -67 -77 -95 -140 -95c-42 0 -77 16 -103 49s-40 76 -40 129c0 128 64 186 206 186h77v14c0 55 -32 80 -101 80c-57 0 -105 -16 -146 -45v133
c56 19 113 28 170 28c147 0 209 -73 209 -248zM305 800h103l-135 -184h-72z" />
    <glyph glyph-name="acircumflex" unicode="&#xe2;" horiz-adv-x="506" 
d="M247 246c-55 0 -83 -25 -83 -73c0 -44 24 -71 63 -71c50 0 88 53 88 124v20h-68zM447 312v-312h-132v81c-35 -67 -77 -95 -140 -95c-42 0 -77 16 -103 49s-40 76 -40 129c0 128 64 186 206 186h77v14c0 55 -32 80 -101 80c-57 0 -105 -16 -146 -45v133
c56 19 113 28 170 28c147 0 209 -73 209 -248zM211 800h89l93 -184h-65l-73 110l-72 -110h-66z" />
    <glyph glyph-name="atilde" unicode="&#xe3;" horiz-adv-x="506" 
d="M247 246c-55 0 -83 -25 -83 -73c0 -44 24 -71 63 -71c50 0 88 53 88 124v20h-68zM447 312v-312h-132v81c-35 -67 -77 -95 -140 -95c-42 0 -77 16 -103 49s-40 76 -40 129c0 128 64 186 206 186h77v14c0 55 -32 80 -101 80c-57 0 -105 -16 -146 -45v133
c56 19 113 28 170 28c147 0 209 -73 209 -248zM256 666l-20 18c-1 1 -2 2 -4 3c-11 10 -20 15 -26 15c-17 0 -27 -20 -27 -59v-4h-51c0 89 26 139 72 139c17 0 34 -8 55 -28l22 -21c11 -9 20 -15 27 -15c18 0 28 22 28 59v4h51c0 -89 -26 -139 -72 -139c-17 0 -32 7 -55 28z
" />
    <glyph glyph-name="adieresis" unicode="&#xe4;" horiz-adv-x="506" 
d="M247 246c-55 0 -83 -25 -83 -73c0 -44 24 -71 63 -71c50 0 88 53 88 124v20h-68zM447 312v-312h-132v81c-35 -67 -77 -95 -140 -95c-42 0 -77 16 -103 49s-40 76 -40 129c0 128 64 186 206 186h77v14c0 55 -32 80 -101 80c-57 0 -105 -16 -146 -45v133
c56 19 113 28 170 28c147 0 209 -73 209 -248zM140 774h86v-120h-86v120zM285 774h86v-120h-86v120z" />
    <glyph glyph-name="aring" unicode="&#xe5;" horiz-adv-x="506" 
d="M247 246c-55 0 -83 -25 -83 -73c0 -44 24 -71 63 -71c50 0 88 53 88 124v20h-68zM447 312v-312h-132v81c-35 -67 -77 -95 -140 -95c-42 0 -77 16 -103 49s-40 76 -40 129c0 128 64 186 206 186h77v14c0 55 -32 80 -101 80c-57 0 -105 -16 -146 -45v133
c56 19 113 28 170 28c147 0 209 -73 209 -248zM207 749c0 -36 22 -64 48 -64c27 0 48 29 48 64s-21 64 -48 64s-48 -29 -48 -64zM151 749c0 39 10 71 30 98s45 41 74 41c30 0 54 -14 74 -41s31 -59 31 -98s-11 -72 -31 -99s-44 -40 -74 -40c-29 0 -54 13 -74 40
s-30 60 -30 99z" />
    <glyph glyph-name="ae" unicode="&#xe6;" horiz-adv-x="786" 
d="M615 333c0 67 -32 111 -79 111c-50 0 -82 -39 -91 -111h170zM247 246c-55 0 -83 -25 -83 -73c0 -44 24 -71 63 -71c50 0 88 53 88 124v20h-68zM68 532c58 19 113 28 161 28c72 0 125 -25 160 -76c38 49 88 76 148 76c64 0 116 -26 154 -78c39 -51 59 -120 59 -207v-50
h-307c7 -81 44 -123 113 -123c55 0 114 22 174 66v-135c-62 -31 -123 -47 -186 -47c-87 0 -153 36 -189 101c-48 -69 -101 -101 -169 -101c-95 0 -154 69 -154 178c0 128 64 186 206 186h77v14c0 55 -32 80 -101 80c-57 0 -105 -16 -146 -45v133z" />
    <glyph glyph-name="ccedilla" unicode="&#xe7;" horiz-adv-x="445" 
d="M394 530v-143c-36 33 -71 48 -109 48c-73 0 -116 -59 -116 -162s43 -162 116 -162c41 0 79 16 109 48v-143c-41 -20 -84 -30 -126 -30c-147 0 -236 107 -236 287s89 287 236 287c43 0 84 -10 126 -30zM287 0c28 -40 42 -74 42 -105c0 -61 -30 -91 -92 -91
c-23 0 -48 5 -74 13v74c24 -11 45 -15 61 -15c27 0 45 15 45 42c0 17 -11 43 -33 82h51z" />
    <glyph glyph-name="egrave" unicode="&#xe8;" horiz-adv-x="508" 
d="M472 275v-50h-306c6 -81 45 -123 113 -123c55 0 113 22 174 66v-135c-62 -31 -124 -47 -186 -47c-148 0 -235 106 -235 287c0 89 20 159 61 210c40 51 96 77 166 77c65 0 117 -26 155 -78c39 -51 58 -120 58 -207zM337 333c0 67 -31 111 -78 111c-51 0 -84 -39 -92 -111
h170zM217 800l103 -184h-72l-135 184h104z" />
    <glyph glyph-name="eacute" unicode="&#xe9;" horiz-adv-x="508" 
d="M472 275v-50h-306c6 -81 45 -123 113 -123c55 0 113 22 174 66v-135c-62 -31 -124 -47 -186 -47c-148 0 -235 106 -235 287c0 89 20 159 61 210c40 51 96 77 166 77c65 0 117 -26 155 -78c39 -51 58 -120 58 -207zM337 333c0 67 -31 111 -78 111c-51 0 -84 -39 -92 -111
h170zM316 800h103l-135 -184h-72z" />
    <glyph glyph-name="ecircumflex" unicode="&#xea;" horiz-adv-x="508" 
d="M472 275v-50h-306c6 -81 45 -123 113 -123c55 0 113 22 174 66v-135c-62 -31 -124 -47 -186 -47c-148 0 -235 106 -235 287c0 89 20 159 61 210c40 51 96 77 166 77c65 0 117 -26 155 -78c39 -51 58 -120 58 -207zM337 333c0 67 -31 111 -78 111c-51 0 -84 -39 -92 -111
h170zM222 800h89l93 -184h-65l-73 110l-72 -110h-66z" />
    <glyph glyph-name="edieresis" unicode="&#xeb;" horiz-adv-x="508" 
d="M472 275v-50h-306c6 -81 45 -123 113 -123c55 0 113 22 174 66v-135c-62 -31 -124 -47 -186 -47c-148 0 -235 106 -235 287c0 89 20 159 61 210c40 51 96 77 166 77c65 0 117 -26 155 -78c39 -51 58 -120 58 -207zM337 333c0 67 -31 111 -78 111c-51 0 -84 -39 -92 -111
h170zM151 774h86v-120h-86v120zM296 774h86v-120h-86v120z" />
    <glyph glyph-name="igrave" unicode="&#xec;" horiz-adv-x="257" 
d="M63 547h131v-547h-131v547zM88 800l103 -184h-72l-135 184h104z" />
    <glyph glyph-name="iacute" unicode="&#xed;" horiz-adv-x="257" 
d="M63 547h131v-547h-131v547zM187 800h103l-135 -184h-72z" />
    <glyph glyph-name="icircumflex" unicode="&#xee;" horiz-adv-x="257" 
d="M63 547h131v-547h-131v547zM93 800h89l93 -184h-65l-73 110l-72 -110h-66z" />
    <glyph glyph-name="idieresis" unicode="&#xef;" horiz-adv-x="257" 
d="M63 547h131v-547h-131v547zM22 774h86v-120h-86v120zM167 774h86v-120h-86v120z" />
    <glyph glyph-name="eth" unicode="&#xf0;" horiz-adv-x="515" 
d="M337 363c-27 17 -53 26 -79 26c-57 0 -89 -45 -89 -124c0 -96 34 -154 89 -154c57 0 88 57 88 162c0 29 -3 59 -9 90zM401 537c57 -88 82 -168 82 -264c0 -180 -84 -287 -225 -287s-226 107 -226 287c0 151 78 242 207 242c22 0 41 -4 59 -13l-70 107l-137 -58l-13 63
l112 47l-69 99h129l41 -57l138 56l13 -63l-116 -47z" />
    <glyph glyph-name="ntilde" unicode="&#xf1;" horiz-adv-x="534" 
d="M475 333v-333h-132v54v201c0 47 0 80 -2 97c-1 18 -4 31 -8 40c-10 23 -29 36 -51 36c-55 0 -88 -59 -88 -159v-269h-131v547h131v-80c39 64 83 93 137 93c95 0 144 -79 144 -227zM276 666l-20 18c-1 1 -2 2 -4 3c-11 10 -20 15 -26 15c-17 0 -27 -20 -27 -59v-4h-51
c0 89 26 139 72 139c17 0 34 -8 55 -28l22 -21c11 -9 20 -15 27 -15c18 0 28 22 28 59v4h51c0 -89 -26 -139 -72 -139c-17 0 -32 7 -55 28z" />
    <glyph glyph-name="ograve" unicode="&#xf2;" horiz-adv-x="515" 
d="M258 435c-58 0 -89 -57 -89 -162s31 -162 89 -162c57 0 88 57 88 162s-31 162 -88 162zM258 560c141 0 225 -107 225 -287s-84 -287 -225 -287s-226 107 -226 287s85 287 226 287zM217 800l103 -184h-72l-135 184h104z" />
    <glyph glyph-name="oacute" unicode="&#xf3;" horiz-adv-x="515" 
d="M258 435c-58 0 -89 -57 -89 -162s31 -162 89 -162c57 0 88 57 88 162s-31 162 -88 162zM258 560c141 0 225 -107 225 -287s-84 -287 -225 -287s-226 107 -226 287s85 287 226 287zM316 800h103l-135 -184h-72z" />
    <glyph glyph-name="ocircumflex" unicode="&#xf4;" horiz-adv-x="515" 
d="M258 435c-58 0 -89 -57 -89 -162s31 -162 89 -162c57 0 88 57 88 162s-31 162 -88 162zM258 560c141 0 225 -107 225 -287s-84 -287 -225 -287s-226 107 -226 287s85 287 226 287zM222 800h89l93 -184h-65l-73 110l-72 -110h-66z" />
    <glyph glyph-name="otilde" unicode="&#xf5;" horiz-adv-x="515" 
d="M258 435c-58 0 -89 -57 -89 -162s31 -162 89 -162c57 0 88 57 88 162s-31 162 -88 162zM258 560c141 0 225 -107 225 -287s-84 -287 -225 -287s-226 107 -226 287s85 287 226 287zM267 666l-20 18c-1 1 -2 2 -4 3c-11 10 -20 15 -26 15c-17 0 -27 -20 -27 -59v-4h-51
c0 89 26 139 72 139c17 0 34 -8 55 -28l22 -21c11 -9 20 -15 27 -15c18 0 28 22 28 59v4h51c0 -89 -26 -139 -72 -139c-17 0 -32 7 -55 28z" />
    <glyph glyph-name="odieresis" unicode="&#xf6;" horiz-adv-x="515" 
d="M258 435c-58 0 -89 -57 -89 -162s31 -162 89 -162c57 0 88 57 88 162s-31 162 -88 162zM258 560c141 0 225 -107 225 -287s-84 -287 -225 -287s-226 107 -226 287s85 287 226 287zM151 774h86v-120h-86v120zM296 774h86v-120h-86v120z" />
    <glyph glyph-name="divide" unicode="&#xf7;" horiz-adv-x="628" 
d="M258 193h112v-151h-112v151zM258 585h112v-151h-112v151zM79 371h470v-115h-470v115z" />
    <glyph glyph-name="oslash" unicode="&#xf8;" horiz-adv-x="515" 
d="M313 408c-14 19 -32 27 -55 27c-58 0 -89 -57 -89 -162c0 -27 2 -48 5 -65zM200 140c15 -20 35 -29 58 -29c57 0 88 57 88 162c0 28 -2 49 -5 68zM82 77c-33 51 -50 116 -50 196c0 180 85 287 226 287c52 0 95 -14 132 -43l54 77l40 -49l-52 -73c34 -52 51 -118 51 -199
c0 -180 -84 -287 -225 -287c-52 0 -96 15 -134 44l-54 -76l-42 46z" />
    <glyph glyph-name="ugrave" unicode="&#xf9;" horiz-adv-x="534" 
d="M58 213v334h132v-55v-112v-89c0 -88 3 -120 11 -137c11 -23 28 -36 51 -36c55 0 88 59 88 159v270h131v-547h-131v79c-39 -64 -83 -93 -136 -93c-95 0 -146 79 -146 227zM226 800l103 -184h-72l-135 184h104z" />
    <glyph glyph-name="uacute" unicode="&#xfa;" horiz-adv-x="534" 
d="M58 213v334h132v-55v-112v-89c0 -88 3 -120 11 -137c11 -23 28 -36 51 -36c55 0 88 59 88 159v270h131v-547h-131v79c-39 -64 -83 -93 -136 -93c-95 0 -146 79 -146 227zM325 800h103l-135 -184h-72z" />
    <glyph glyph-name="ucircumflex" unicode="&#xfb;" horiz-adv-x="534" 
d="M58 213v334h132v-55v-112v-89c0 -88 3 -120 11 -137c11 -23 28 -36 51 -36c55 0 88 59 88 159v270h131v-547h-131v79c-39 -64 -83 -93 -136 -93c-95 0 -146 79 -146 227zM231 800h89l93 -184h-65l-73 110l-72 -110h-66z" />
    <glyph glyph-name="udieresis" unicode="&#xfc;" horiz-adv-x="534" 
d="M58 213v334h132v-55v-112v-89c0 -88 3 -120 11 -137c11 -23 28 -36 51 -36c55 0 88 59 88 159v270h131v-547h-131v79c-39 -64 -83 -93 -136 -93c-95 0 -146 79 -146 227zM160 774h86v-120h-86v120zM305 774h86v-120h-86v120z" />
    <glyph glyph-name="yacute" unicode="&#xfd;" horiz-adv-x="489" 
d="M9 547h131l110 -371l94 371h131l-172 -599c-17 -61 -38 -103 -61 -127c-23 -25 -53 -37 -91 -37h-76v115h41c44 0 61 16 72 65l4 15zM294 800h103l-135 -184h-72z" />
    <glyph glyph-name="thorn" unicode="&#xfe;" horiz-adv-x="537" 
d="M194 79v-287h-131v968h131v-293c36 64 79 93 136 93c50 0 92 -27 124 -81c33 -53 49 -122 49 -206c0 -85 -16 -154 -49 -207c-32 -53 -74 -80 -124 -80c-57 0 -100 29 -136 93zM281 433c-56 0 -87 -56 -87 -160s31 -160 87 -160s86 56 86 160s-30 160 -86 160z" />
    <glyph glyph-name="ydieresis" unicode="&#xff;" horiz-adv-x="489" 
d="M9 547h131l110 -371l94 371h131l-172 -599c-17 -61 -38 -103 -61 -127c-23 -25 -53 -37 -91 -37h-76v115h41c44 0 61 16 72 65l4 15zM129 774h86v-120h-86v120zM274 774h86v-120h-86v120z" />
    <glyph glyph-name="_1" horiz-adv-x="0" 
 />
    <glyph glyph-name="CR" horiz-adv-x="261" 
 />
    <glyph glyph-name="notequal" unicode="&#x2260;" horiz-adv-x="628" 
d="M79 482h290l92 149l55 -61l-53 -88h86v-115h-153l-64 -107h217v-116h-290l-92 -149l-55 62l54 87h-87v116h156l64 107h-220v115z" />
    <glyph glyph-name="infinity" unicode="&#x221e;" horiz-adv-x="625" 
d="M350 274c21 -44 50 -66 86 -66c44 0 74 36 74 88c0 49 -29 87 -65 87s-62 -30 -95 -109zM275 321c-21 44 -49 65 -85 65c-45 0 -75 -36 -75 -87s29 -87 66 -87c35 0 62 32 94 109zM313 216c-33 -85 -71 -125 -118 -125c-34 0 -63 20 -88 59c-24 39 -36 88 -36 147
c0 61 11 111 32 149c22 38 50 57 84 57c44 0 77 -32 125 -125c35 85 73 126 118 126c35 0 64 -20 88 -59s36 -88 36 -147c0 -61 -10 -111 -32 -150c-22 -38 -50 -57 -83 -57c-45 0 -77 30 -126 125z" />
    <glyph glyph-name="lessequal" unicode="&#x2264;" horiz-adv-x="628" 
d="M549 116v-116h-470v116h470zM549 463l-329 -102l329 -102v-119l-470 164v115l470 163v-119z" />
    <glyph glyph-name="greaterequal" unicode="&#x2265;" horiz-adv-x="628" 
d="M79 116h470v-116h-470v116zM79 463v119l470 -163v-115l-470 -164v119l329 102z" />
    <glyph glyph-name="partialdiff" unicode="&#x2202;" horiz-adv-x="408" 
d="M280 334c10 73 16 137 16 174c0 56 -17 102 -36 102c-8 0 -25 -15 -49 -46c-23 -30 -45 -45 -65 -45c-24 0 -41 25 -41 57c0 23 11 43 34 61c23 19 50 28 81 28c51 0 92 -26 121 -79c30 -52 45 -124 45 -215c0 -112 -20 -204 -60 -276c-40 -71 -90 -107 -152 -107
c-44 0 -81 19 -110 57c-28 38 -42 87 -42 146c0 66 14 121 43 164s66 65 110 65c48 0 81 -27 105 -86zM256 260c0 73 -19 116 -52 116c-23 0 -44 -22 -59 -67c-16 -44 -24 -100 -24 -169c0 -76 19 -115 53 -115c23 0 43 22 58 66c16 44 24 100 24 169z" />
    <glyph glyph-name="summation" unicode="&#x2211;" horiz-adv-x="538" 
d="M24 719h479v-129h-322l228 -315l-228 -337h342v-130h-508v84l256 377l-247 337v113z" />
    <glyph glyph-name="product" unicode="&#x220f;" horiz-adv-x="590" 
d="M55 719h479v-911h-126v770h-227v-770h-126v911z" />
    <glyph glyph-name="pi" unicode="&#x3c0;" horiz-adv-x="483" 
d="M496 533l-15 -109h-64l-56 -424h-105l55 424h-87l-55 -424h-105l55 424h-9c-27 0 -40 -19 -45 -64h-78c7 65 22 110 45 135s61 38 114 38h350z" />
    <glyph glyph-name="integral" unicode="&#x222b;" horiz-adv-x="457" 
d="M133 -121c24 0 38 109 43 326c1 33 1 58 2 75c3 170 19 292 47 367s70 113 128 113c51 0 86 -38 86 -93c0 -41 -21 -70 -54 -70c-30 0 -47 26 -47 74c0 24 -3 29 -12 29c-25 0 -40 -108 -45 -325c-1 -20 -1 -35 -1 -45c-3 -107 -6 -184 -12 -231c-4 -47 -11 -86 -21 -119
c-30 -108 -77 -162 -142 -162c-52 0 -86 37 -86 93c0 43 22 70 56 70c29 0 46 -24 46 -68c0 -4 0 -8 -1 -12v-1c0 -16 4 -21 13 -21z" />
    <glyph glyph-name="Omega" unicode="&#x3a9;" horiz-adv-x="577" 
d="M449 125h107v-125h-223v142c61 56 94 144 94 251c0 132 -52 213 -139 213s-140 -81 -140 -213c0 -107 34 -195 95 -251v-142h-223v125h107c-63 79 -91 168 -91 275c0 102 22 184 68 245s107 92 184 92c76 0 137 -31 183 -92s69 -143 69 -245c0 -107 -29 -196 -91 -275z
" />
    <glyph glyph-name="Omega" unicode="&#x2126;" horiz-adv-x="577" 
d="M449 125h107v-125h-223v142c61 56 94 144 94 251c0 132 -52 213 -139 213s-140 -81 -140 -213c0 -107 34 -195 95 -251v-142h-223v125h107c-63 79 -91 168 -91 275c0 102 22 184 68 245s107 92 184 92c76 0 137 -31 183 -92s69 -143 69 -245c0 -107 -29 -196 -91 -275z
" />
    <glyph glyph-name="radical" unicode="&#x221a;" horiz-adv-x="500" 
d="M423 837h79v-73h-36l-216 -784h-43l-113 413l-53 -27l-13 63l132 62l81 -310z" />
    <glyph glyph-name="approxequal" unicode="&#x2248;" horiz-adv-x="628" 
d="M549 517v-119c-52 -52 -92 -73 -140 -73c-26 0 -56 10 -91 29c-4 1 -6 3 -8 4s-5 2 -9 4c-37 20 -67 30 -90 30c-43 0 -84 -25 -132 -78v119c51 51 93 72 140 72c27 0 58 -10 94 -29l6 -3l8 -4c37 -20 67 -30 91 -30c42 0 81 23 131 78zM549 313v-119
c-52 -52 -92 -73 -140 -73c-26 0 -56 9 -91 28c-4 2 -6 4 -8 5s-5 2 -9 4c-37 20 -67 30 -90 30c-43 0 -84 -23 -132 -78v119c52 52 93 73 140 73c26 0 56 -10 91 -29c4 -1 6 -3 9 -4l8 -4c37 -20 67 -30 91 -30c42 0 81 22 131 78z" />
    <glyph glyph-name="increment" unicode="&#x2206;" horiz-adv-x="523" 
d="M261 542l-119 -417h239zM206 719h110l207 -719h-523z" />
    <glyph glyph-name="nbspace" unicode="&#xa0;" horiz-adv-x="522" 
 />
    <glyph glyph-name="lozenge" unicode="&#x25ca;" horiz-adv-x="370" 
d="M185 688l-141 -399l141 -403l141 403zM185 807l183 -518l-183 -522l-183 522z" />
    <glyph glyph-name="middot" horiz-adv-x="285" 
d="M76 442h132v-189h-132v189z" />
    <glyph glyph-name="overscore" 
d="M72 760h231v-92h-231v92z" />
    <glyph glyph-name="Gbreve" unicode="&#x11e;" horiz-adv-x="616" 
d="M560 54c-70 -45 -146 -68 -226 -68c-91 0 -164 34 -217 101c-53 68 -80 160 -80 277s27 210 81 277c55 67 129 101 223 101c73 0 140 -18 199 -54v-151c-61 47 -121 69 -182 69c-111 0 -175 -87 -175 -242s61 -242 169 -242c30 0 54 4 75 15v142h-87v126h220v-351z
M176 927h53c9 -40 33 -59 70 -59s61 19 71 59h52c-8 -84 -51 -129 -123 -129s-115 45 -123 129z" />
    <glyph glyph-name="gbreve" unicode="&#x11f;" horiz-adv-x="537" 
d="M342 93c-36 -64 -78 -93 -135 -93c-50 0 -92 26 -125 79c-32 53 -48 120 -48 201s16 148 48 200c33 53 75 79 125 79c57 0 99 -29 135 -93v81h132v-492c0 -176 -86 -271 -244 -271c-51 0 -98 11 -146 32v136c46 -35 89 -52 133 -52c87 0 125 48 125 155v38zM256 433
c-54 0 -87 -56 -87 -153c0 -100 30 -153 87 -153c54 0 86 56 86 153s-32 153 -86 153zM145 784h53c5 -45 29 -70 70 -70c42 0 66 25 71 70h52c-3 -93 -47 -145 -123 -145c-75 0 -120 52 -123 145z" />
    <glyph glyph-name="Idot" unicode="&#x130;" horiz-adv-x="279" 
d="M69 729h141v-729h-141v729zM80 927h101v-120h-101v120z" />
    <glyph glyph-name="Scedilla" unicode="&#x15e;" horiz-adv-x="540" 
d="M449 706v-154c-60 36 -118 54 -169 54c-66 0 -99 -24 -99 -76c0 -40 19 -58 76 -74l60 -16c121 -32 168 -93 168 -216c0 -160 -70 -238 -217 -238c-69 0 -140 17 -210 52v159c70 -49 135 -75 196 -75s95 28 95 79c0 45 -17 66 -83 86l-55 16c-108 32 -157 97 -157 213
c0 145 72 226 204 226c60 0 123 -12 191 -36zM301 0c28 -40 42 -74 42 -105c0 -61 -30 -91 -92 -91c-23 0 -48 5 -74 13v74c24 -11 45 -15 61 -15c27 0 45 15 45 42c0 17 -11 43 -33 82h51z" />
    <glyph glyph-name="scedilla" unicode="&#x15f;" horiz-adv-x="446" 
d="M383 530v-133c-56 31 -108 47 -155 47c-50 0 -74 -16 -74 -51c0 -28 16 -41 63 -49l24 -4c66 -11 111 -30 135 -56c23 -26 35 -67 35 -123c0 -116 -65 -175 -193 -175c-54 0 -112 11 -173 34v133c52 -35 107 -51 164 -51c51 0 77 19 77 56c0 32 -13 45 -66 53l-24 4
c-116 19 -157 67 -157 174c0 116 58 171 181 171c48 0 101 -10 163 -30zM256 0c28 -40 42 -74 42 -105c0 -61 -30 -91 -92 -91c-23 0 -48 5 -74 13v74c24 -11 45 -15 61 -15c27 0 45 15 45 42c0 17 -11 43 -33 82h51z" />
    <glyph glyph-name="Cacute" unicode="&#x106;" horiz-adv-x="550" 
d="M502 40c-51 -36 -108 -54 -168 -54c-91 0 -164 34 -217 101c-53 68 -80 160 -80 277s27 209 80 276c53 68 126 102 217 102c60 0 117 -18 168 -54v-151c-51 48 -101 69 -157 69c-101 0 -162 -91 -162 -242s61 -242 162 -242c56 0 106 21 157 69v-151zM337 927h104
l-104 -129h-72z" />
    <glyph glyph-name="cacute" unicode="&#x107;" horiz-adv-x="445" 
d="M394 530v-143c-36 33 -71 48 -109 48c-73 0 -116 -59 -116 -162s43 -162 116 -162c41 0 79 16 109 48v-143c-41 -20 -84 -30 -126 -30c-147 0 -236 107 -236 287s89 287 236 287c43 0 84 -10 126 -30zM314 800h103l-135 -184h-72z" />
    <glyph glyph-name="Ccaron" unicode="&#x10c;" horiz-adv-x="550" 
d="M502 40c-51 -36 -108 -54 -168 -54c-91 0 -164 34 -217 101c-53 68 -80 160 -80 277s27 209 80 276c53 68 126 102 217 102c60 0 117 -18 168 -54v-151c-51 48 -101 69 -157 69c-101 0 -162 -91 -162 -242s61 -242 162 -242c56 0 106 21 157 69v-151zM262 798l-81 129h65
l73 -79l72 79h66l-82 -129h-113z" />
    <glyph glyph-name="ccaron" unicode="&#x10d;" horiz-adv-x="445" 
d="M394 530v-143c-36 33 -71 48 -109 48c-73 0 -116 -59 -116 -162s43 -162 116 -162c41 0 79 16 109 48v-143c-41 -20 -84 -30 -126 -30c-147 0 -236 107 -236 287s89 287 236 287c43 0 84 -10 126 -30zM220 616l-94 184h66l72 -111l73 111h65l-93 -184h-89z" />
    <glyph glyph-name="dslash" unicode="&#x111;" horiz-adv-x="537" 
d="M342 467v137h-119v100h119v56h132v-56h56v-100h-56v-604h-132v79c-36 -64 -78 -93 -135 -93c-50 0 -92 27 -125 80c-32 53 -48 122 -48 207c0 84 16 153 48 206c33 54 75 81 125 81c57 0 99 -29 135 -93zM256 113c56 0 86 56 86 160s-30 160 -86 160
c-57 0 -87 -56 -87 -160s30 -160 87 -160z" />
    <glyph glyph-name="sfthyphen" unicode="&#xad;" horiz-adv-x="311" 
d="M40 359h231v-142h-231v142z" />
    <glyph glyph-name="c6459" 
d="M72 745h86v-120h-86v120zM217 745h86v-120h-86v120z" />
    <glyph glyph-name="c6460" 
d="M206 745h104l-105 -129h-72z" />
    <glyph glyph-name="c6461" 
d="M188 640l-20 17c-1 1 -2 2 -4 3c-11 9 -20 13 -27 13c-16 0 -26 -21 -26 -54v-3h-51c0 4 1 11 1 15c0 69 28 115 71 115c18 0 36 -8 55 -24l21 -19c10 -9 20 -14 28 -14c18 0 28 20 28 57h51c0 -4 -1 -12 -1 -15c0 -69 -28 -115 -71 -115c-18 0 -35 7 -55 24z" />
    <glyph glyph-name="c6462" 
d="M169 745l72 -129h-72l-104 129h104z" />
    <glyph glyph-name="c6463" 
d="M131 745h113l81 -129h-65l-73 79l-72 -79h-66z" />
    <glyph glyph-name="c6466" 
d="M131 616l-82 129h66l72 -79l73 79h65l-81 -129h-113z" />
    <glyph glyph-name="c6467" 
d="M64 745h53c10 -40 34 -59 70 -59c37 0 61 19 71 59h52c-8 -84 -51 -129 -123 -129s-114 45 -123 129z" />
    <glyph glyph-name="c6468" 
d="M137 745h101v-120h-101v120z" />
  </font>
</defs>
</svg>
