<?xml version="1.0" encoding="utf-8"?>
<!-- Generator: Adobe Illustrator 16.0.0, SVG Export Plug-In . SVG Version: 6.00 Build 0)  -->
<!DOCTYPE svg PUBLIC "-//W3C//DTD SVG 1.1//EN" "http://www.w3.org/Graphics/SVG/1.1/DTD/svg11.dtd">
<svg version="1.1" id="Calque_1" xmlns="http://www.w3.org/2000/svg" xmlns:xlink="http://www.w3.org/1999/xlink" x="0px" y="0px"
	 width="25px" height="25px" viewBox="0 0 25 25" enable-background="new 0 0 25 25" xml:space="preserve">
<path fill="#A18545" d="M16.867,5.123c0,0-2.37-0.418-2.925,0.254c-0.813,0.408-0.555,3.039-0.555,3.039h2.962v2.667h-2.962v11.81
	H9.871v-11.81H7.687V8.416c0,0,2.218,0,2.222,0c-0.203,0,0.11-2.609,0.135-2.855c0.125-1.31,1.09-2.462,2.333-2.89
	c1.7-0.585,3.251-0.264,4.937,0.154C17.164,3.592,17.015,4.358,16.867,5.123z"/>
<path display="none" fill="#A18545" d="M4.651,2.063H20.35c1.491,0,2.711,1.22,2.711,2.712v15.699c0,1.49-1.22,2.708-2.711,2.708
	H4.651c-1.492,0-2.711-1.218-2.711-2.708V4.775C1.939,3.283,3.159,2.063,4.651,2.063z M17.327,4.408
	c-0.524,0-0.951,0.429-0.951,0.953v2.274c0,0.524,0.427,0.952,0.951,0.952h2.385c0.523,0,0.951-0.428,0.951-0.952V5.361
	c0-0.523-0.428-0.953-0.951-0.953H17.327z M20.672,10.995h-1.858c0.178,0.575,0.272,1.181,0.272,1.812
	c0,3.513-2.938,6.362-6.566,6.362c-3.625,0-6.565-2.85-6.565-6.362c0-0.63,0.096-1.237,0.271-1.812H4.287v8.92
	c0,0.463,0.378,0.84,0.839,0.84h14.708c0.461,0,0.837-0.377,0.837-0.84V10.995z M12.52,8.467c-2.342,0-4.242,1.841-4.242,4.111
	c0,2.268,1.899,4.109,4.242,4.109c2.344,0,4.243-1.842,4.243-4.109C16.763,10.308,14.864,8.467,12.52,8.467z"/>
<g display="none">
	<path display="inline" fill="#A18545" d="M12.084,3.656c0.165,0.102,0.348,0.249,0.552,0.444c0.195,0.203,0.387,0.453,0.575,0.749
		c0.181,0.279,0.339,0.608,0.479,0.99c0.113,0.38,0.17,0.824,0.17,1.332c-0.016,0.93-0.22,1.675-0.616,2.233
		c-0.194,0.271-0.398,0.521-0.615,0.75c-0.241,0.228-0.497,0.46-0.767,0.697c-0.157,0.162-0.299,0.344-0.431,0.548
		c-0.155,0.21-0.232,0.455-0.232,0.734c0,0.272,0.079,0.495,0.237,0.674c0.136,0.169,0.267,0.316,0.395,0.442l0.882,0.726
		c0.548,0.447,1.029,0.94,1.443,1.482c0.389,0.551,0.592,1.271,0.609,2.156c0,1.262-0.558,2.377-1.672,3.354
		c-1.152,1.005-2.819,1.525-4.996,1.561c-1.822-0.019-3.182-0.406-4.081-1.166c-0.906-0.709-1.36-1.558-1.36-2.546
		c0-0.479,0.147-1.018,0.443-1.608c0.286-0.593,0.804-1.109,1.555-1.558c0.841-0.48,1.727-0.804,2.654-0.963
		c0.918-0.135,1.68-0.212,2.287-0.227c-0.186-0.25-0.354-0.511-0.5-0.792c-0.172-0.273-0.256-0.6-0.256-0.983
		c0-0.229,0.032-0.422,0.097-0.574c0.057-0.163,0.109-0.31,0.159-0.447c-0.296,0.034-0.576,0.05-0.836,0.05
		c-1.385-0.016-2.44-0.453-3.167-1.307c-0.76-0.796-1.141-1.722-1.141-2.778c0-1.279,0.538-2.437,1.616-3.478
		c0.739-0.609,1.508-1.005,2.304-1.192c0.79-0.161,1.529-0.242,2.22-0.242h5.201l-1.605,0.938H12.084z M13.088,18.631
		c0-0.659-0.214-1.234-0.645-1.725c-0.456-0.466-1.167-1.038-2.137-1.716c-0.166-0.017-0.359-0.024-0.584-0.024
		c-0.131-0.015-0.473,0-1.019,0.05c-0.538,0.077-1.089,0.2-1.653,0.369c-0.132,0.052-0.318,0.126-0.558,0.229
		c-0.24,0.109-0.484,0.267-0.734,0.47c-0.24,0.212-0.443,0.474-0.608,0.787c-0.192,0.331-0.285,0.728-0.285,1.192
		c0,0.913,0.413,1.668,1.241,2.261c0.788,0.592,1.864,0.896,3.23,0.913c1.226-0.018,2.164-0.288,2.808-0.812
		C12.773,20.107,13.088,19.442,13.088,18.631z M9.462,11.005c0.686-0.025,1.255-0.271,1.711-0.737
		c0.222-0.331,0.363-0.669,0.426-1.018c0.037-0.348,0.057-0.639,0.057-0.877c0-1.025-0.264-2.06-0.788-3.102
		c-0.247-0.5-0.57-0.907-0.972-1.221C9.485,3.754,9.015,3.596,8.482,3.58C7.777,3.596,7.192,3.881,6.724,4.432
		C6.33,5.008,6.141,5.653,6.159,6.364c0,0.941,0.274,1.919,0.825,2.937c0.268,0.474,0.611,0.876,1.033,1.208
		C8.438,10.841,8.92,11.005,9.462,11.005z"/>
	<polygon display="inline" fill="#A18545" points="22.342,5.559 19.612,5.559 19.612,2.829 18.29,2.829 18.29,5.559 15.562,5.559 
		15.562,6.882 18.29,6.882 18.29,9.61 19.612,9.61 19.612,6.882 22.342,6.882 	"/>
</g>
<path display="none" fill="#A18545" d="M22.403,7.544c0.013,0.219,0.016,0.438,0.016,0.66c0,6.753-5.139,14.539-14.538,14.539
	c-2.885,0-5.571-0.846-7.833-2.297c0.397,0.044,0.807,0.071,1.218,0.071c2.393,0,4.597-0.815,6.346-2.188
	c-2.238-0.04-4.123-1.519-4.774-3.548c0.312,0.058,0.632,0.093,0.958,0.093c0.468,0,0.92-0.065,1.348-0.182
	c-2.339-0.471-4.101-2.533-4.101-5.01c0-0.022,0-0.042,0-0.065c0.689,0.384,1.479,0.613,2.315,0.638
	c-1.37-0.917-2.27-2.482-2.27-4.254c0-0.934,0.251-1.813,0.692-2.566C4.297,6.526,8.064,8.56,12.312,8.771
	C12.223,8.4,12.18,8.007,12.18,7.606c0-2.82,2.288-5.105,5.108-5.105c1.471,0,2.801,0.62,3.731,1.61
	c1.162-0.229,2.258-0.652,3.246-1.24c-0.384,1.192-1.195,2.195-2.248,2.825c1.032-0.122,2.016-0.396,2.935-0.804
	C24.268,5.924,23.402,6.823,22.403,7.544z"/>
</svg>
